<svg id="splitsvg" xmlns="http://www.w3.org/2000/svg" xmlns:xlink="http://www.w3.org/1999/xlink" width="1380" height="400" version="1.1"><g id="svgg"><path id="path0" d="M0.261 1.041 C 0.117 1.185,-0.000 91.009,-0.000 200.651 L -0.000 400.001 199.512 399.903 L 399.023 399.805 399.023 200.391 L 399.023 0.977 199.773 0.879 C 90.185 0.825,0.404 0.898,0.261 1.041 M396.875 200.391 L 396.875 397.656 199.609 397.656 L 2.344 397.656 2.344 200.391 L 2.344 3.125 199.609 3.125 L 396.875 3.125 396.875 200.391  M -25 0 L -5 0 L -5 20 L -25 20 Z M 405 0 L 425 0 L 425 20 L 405 20 Z" stroke="none" fill="#000000" fill-rule="evenodd" transform="translate(30,0)"></path></g></svg>