<svg id="svg" xmlns="http://www.w3.org/2000/svg" xmlns:xlink="http://www.w3.org/1999/xlink" width="400" height="400" viewBox="0, 0, 400,400" version="1.1"><g id="svgg"><path id="path0" d="M173.930 109.500 C 185.002 109.559,203.002 109.559,213.930 109.500 C 224.859 109.441,215.800 109.392,193.800 109.392 C 171.800 109.392,162.859 109.441,173.930 109.500 M234.032 131.630 C 233.998 132.308,232.579 133.760,231.600 134.118 C 231.083 134.306,231.087 134.341,231.625 134.368 C 232.471 134.411,234.541 132.197,234.276 131.532 C 234.121 131.145,234.055 131.171,234.032 131.630 M296.942 242.443 C 296.534 242.604,284.065 254.885,269.234 269.735 C 242.594 296.408,242.269 296.753,242.325 298.264 C 242.378 299.671,256.255 314.575,258.238 315.355 C 258.478 315.450,271.523 302.678,287.225 286.975 L 315.776 258.422 307.839 250.449 C 299.806 242.380,298.863 241.687,296.942 242.443 " stroke="none" fill="#fc5454" fill-rule="evenodd"></path><path id="path1" d="M92.381 250.419 L 84.326 258.437 102.987 277.119 C 113.251 287.393,126.132 300.276,131.611 305.748 L 141.574 315.695 149.587 307.633 C 157.116 300.057,157.600 299.481,157.601 298.085 C 157.602 295.782,104.209 242.400,101.903 242.400 C 100.531 242.400,99.919 242.915,92.381 250.419 " stroke="none" fill="#42c0f7" fill-rule="evenodd"></path><path id="path2" d="M153.469 109.865 C 153.321 110.012,153.200 115.043,153.200 121.044 L 153.200 131.955 154.165 133.078 L 155.131 134.200 193.556 134.200 L 231.982 134.200 233.091 133.091 L 234.200 131.983 234.200 120.891 L 234.200 109.800 193.969 109.698 C 171.841 109.642,153.616 109.717,153.469 109.865 " stroke="none" fill="#fcd444" fill-rule="evenodd"></path><path id="path3" d="M146.281 11.853 C 145.939 12.194,145.911 135.828,146.252 137.100 C 146.385 137.595,146.742 138.000,147.047 138.000 C 147.351 138.000,147.600 138.340,147.600 138.757 C 147.600 139.230,147.974 139.607,148.600 139.764 C 149.150 139.902,149.600 140.265,149.600 140.570 C 149.600 142.036,236.486 142.066,237.958 140.600 C 238.400 140.160,238.995 139.577,239.281 139.305 C 241.616 137.078,241.387 143.447,241.523 76.872 C 241.590 43.722,241.531 15.475,241.391 14.100 L 241.136 11.600 237.368 11.600 L 233.600 11.600 233.600 57.000 L 233.600 102.400 193.802 102.400 L 154.003 102.400 153.902 57.100 L 153.800 11.800 150.181 11.686 C 148.190 11.623,146.435 11.698,146.281 11.853 M308.656 29.042 C 308.515 30.070,308.400 32.957,308.400 35.456 L 308.400 40.000 302.200 40.000 L 296.000 40.000 296.000 43.800 L 296.000 47.600 302.200 47.600 L 308.400 47.600 308.404 52.300 C 308.407 54.885,308.520 57.675,308.657 58.500 L 308.905 60.000 312.652 60.000 L 316.400 60.000 316.400 53.800 L 316.400 47.600 322.600 47.600 L 328.800 47.600 328.800 43.800 L 328.800 40.000 322.610 40.000 L 316.420 40.000 316.310 33.700 L 316.200 27.400 312.556 27.286 L 308.913 27.171 308.656 29.042 M352.400 74.200 L 352.400 80.400 346.200 80.400 L 340.000 80.400 340.000 84.400 L 340.000 88.400 346.200 88.400 L 352.400 88.400 352.400 94.600 L 352.400 100.800 356.200 100.800 L 360.000 100.800 360.000 94.610 L 360.000 88.420 366.300 88.310 L 372.600 88.200 372.600 84.400 L 372.600 80.600 366.300 80.490 L 360.000 80.380 360.000 74.190 L 360.000 68.000 356.200 68.000 L 352.400 68.000 352.400 74.200 M235.007 110.100 C 235.627 113.415,235.026 133.546,234.286 134.286 C 233.610 134.962,231.431 135.000,193.750 135.000 L 153.929 135.000 153.165 134.056 C 152.388 133.096,151.924 109.810,152.667 109.067 C 152.813 108.920,171.345 108.800,193.849 108.800 L 234.764 108.800 235.007 110.100 M152.400 198.400 C 152.400 250.533,152.404 250.800,153.200 250.800 C 153.733 250.800,154.000 251.067,154.000 251.600 C 154.000 252.040,154.329 252.729,154.731 253.131 C 155.132 253.532,155.573 254.152,155.710 254.508 C 155.846 254.865,156.597 255.276,157.379 255.422 C 158.161 255.569,158.800 255.927,158.800 256.218 C 158.800 257.012,159.978 257.239,163.663 257.154 C 165.499 257.112,168.305 257.105,169.900 257.139 L 172.800 257.200 172.800 258.437 C 172.800 259.319,173.020 259.732,173.563 259.874 C 173.983 259.984,174.416 260.417,174.526 260.837 C 174.666 261.372,175.081 261.600,175.916 261.600 C 176.770 261.600,177.166 261.826,177.316 262.400 C 177.515 263.162,177.862 263.200,184.563 263.200 L 191.600 263.200 191.600 264.573 C 191.600 265.595,191.805 266.011,192.400 266.200 C 192.840 266.340,193.200 266.693,193.200 266.984 C 193.200 267.563,194.054 268.000,195.186 268.000 C 195.582 268.000,196.001 268.360,196.116 268.800 C 196.315 269.561,196.662 269.600,203.163 269.600 C 209.733 269.600,210.000 269.569,210.000 268.800 C 210.000 268.220,210.267 268.000,210.972 268.000 C 212.337 268.000,214.800 265.589,214.800 264.253 C 214.800 263.467,215.003 263.200,215.600 263.200 C 216.267 263.200,216.400 262.933,216.400 261.600 L 216.400 260.000 222.600 260.000 C 228.533 260.000,228.800 259.966,228.800 259.200 C 228.800 258.639,229.069 258.398,229.700 258.394 C 230.949 258.385,231.769 257.797,231.389 257.183 C 231.215 256.900,231.238 256.776,231.443 256.903 C 232.017 257.257,233.322 256.120,232.978 255.565 C 232.785 255.253,232.843 255.179,233.138 255.362 C 233.427 255.540,233.600 255.356,233.600 254.870 C 233.600 254.430,233.946 254.003,234.400 253.884 C 235.188 253.678,235.200 253.338,235.200 231.837 L 235.200 210.000 241.400 210.000 C 247.333 210.000,247.600 209.966,247.600 209.200 C 247.600 208.639,247.869 208.398,248.500 208.394 C 249.749 208.385,250.569 207.797,250.189 207.183 C 249.989 206.859,250.038 206.776,250.324 206.953 C 250.912 207.317,252.400 205.808,252.400 204.847 C 252.400 204.430,252.757 204.000,253.200 203.884 C 253.985 203.679,254.000 203.338,254.000 185.670 C 254.000 167.397,253.946 166.400,252.957 166.400 C 252.607 166.400,252.400 165.962,252.400 165.223 C 252.400 164.544,252.093 163.824,251.674 163.523 C 251.274 163.235,250.830 162.685,250.686 162.300 C 250.543 161.915,250.170 161.600,249.859 161.600 C 249.548 161.600,249.199 161.240,249.084 160.800 C 248.969 160.360,248.588 160.000,248.237 160.000 C 247.887 160.000,247.600 159.730,247.600 159.400 C 247.600 159.067,247.244 158.800,246.800 158.800 C 246.267 158.800,246.000 158.533,246.000 158.000 C 246.000 157.467,245.733 157.200,245.200 157.200 C 244.667 157.200,244.400 156.933,244.400 156.400 C 244.400 155.867,244.133 155.600,243.600 155.600 C 243.067 155.600,242.800 155.333,242.800 154.800 C 242.800 154.267,242.533 154.000,242.000 154.000 C 241.467 154.000,241.200 153.733,241.200 153.200 C 241.200 152.760,240.951 152.400,240.647 152.400 C 240.342 152.400,239.999 152.040,239.884 151.600 C 239.769 151.160,239.388 150.800,239.037 150.800 C 238.667 150.800,238.400 150.465,238.400 150.000 C 238.400 149.467,238.133 149.200,237.600 149.200 C 237.067 149.200,236.800 148.933,236.800 148.400 C 236.800 147.867,236.533 147.600,236.000 147.600 C 235.462 147.600,235.200 147.333,235.200 146.786 C 235.200 146.014,234.994 145.977,231.300 146.086 L 227.400 146.200 227.285 149.933 C 227.179 153.348,227.236 153.684,227.948 153.870 C 228.376 153.982,228.816 154.417,228.926 154.837 C 229.035 155.257,229.391 155.600,229.716 155.600 C 230.041 155.600,230.401 155.960,230.516 156.400 C 230.631 156.840,231.012 157.200,231.363 157.200 C 231.713 157.200,232.000 157.470,232.000 157.800 C 232.000 158.133,232.356 158.400,232.800 158.400 C 233.333 158.400,233.600 158.667,233.600 159.200 C 233.600 159.733,233.867 160.000,234.400 160.000 C 234.933 160.000,235.200 160.267,235.200 160.800 C 235.200 161.333,235.467 161.600,236.000 161.600 C 236.533 161.600,236.800 161.867,236.800 162.400 C 236.800 162.933,237.067 163.200,237.600 163.200 C 238.133 163.200,238.400 163.467,238.400 164.000 C 238.400 164.533,238.667 164.800,239.200 164.800 C 239.733 164.800,240.000 165.067,240.000 165.600 C 240.000 166.133,240.267 166.400,240.800 166.400 C 241.333 166.400,241.600 166.667,241.600 167.200 C 241.600 167.640,241.862 168.000,242.182 168.000 C 242.530 168.000,242.869 168.562,243.026 169.400 C 243.177 170.202,243.526 170.800,243.845 170.800 C 244.219 170.800,244.402 171.289,244.405 172.300 C 244.413 174.389,244.795 175.600,245.447 175.600 C 246.471 175.600,246.237 195.363,245.200 196.400 C 244.760 196.840,244.400 197.650,244.400 198.200 C 244.400 198.785,244.170 199.200,243.847 199.200 C 243.542 199.200,243.199 199.560,243.084 200.000 C 242.907 200.677,242.538 200.800,240.684 200.800 C 238.830 200.800,238.461 200.677,238.284 200.000 C 238.169 199.560,237.788 199.200,237.437 199.200 C 236.999 199.200,236.800 198.833,236.800 198.023 C 236.800 197.315,236.494 196.631,236.032 196.307 C 235.590 195.998,235.207 195.181,235.132 194.385 L 235.000 193.000 231.800 192.938 C 230.040 192.905,228.285 192.962,227.900 193.065 C 227.242 193.243,227.200 194.846,227.200 219.584 C 227.200 241.544,227.109 245.949,226.651 246.125 C 226.348 246.241,225.980 246.981,225.832 247.768 C 225.670 248.631,225.333 249.200,224.982 249.200 C 224.662 249.200,224.400 249.560,224.400 250.000 C 224.400 250.709,224.133 250.800,222.047 250.800 C 220.030 250.800,219.663 250.686,219.484 250.000 C 219.369 249.560,218.988 249.200,218.637 249.200 C 218.178 249.200,218.000 248.817,218.000 247.827 C 218.000 246.805,217.795 246.389,217.200 246.200 C 216.416 245.951,216.400 245.595,216.400 228.773 L 216.400 211.600 212.654 211.600 L 208.909 211.600 208.654 213.456 C 208.514 214.477,208.400 224.377,208.400 235.456 C 208.400 253.095,208.325 255.600,207.800 255.600 C 207.367 255.600,207.200 256.044,207.200 257.200 C 207.200 258.533,207.067 258.800,206.400 258.800 C 205.956 258.800,205.600 259.067,205.600 259.400 C 205.600 259.867,205.067 260.000,203.200 260.000 C 201.333 260.000,200.800 259.867,200.800 259.400 C 200.800 259.067,200.444 258.800,200.000 258.800 C 199.333 258.800,199.200 258.533,199.200 257.200 C 199.200 255.867,199.067 255.600,198.400 255.600 C 197.610 255.600,197.600 255.333,197.600 233.600 L 197.600 211.600 193.800 211.600 L 190.000 211.600 190.000 230.353 C 190.000 248.770,189.986 249.110,189.200 249.316 C 188.587 249.476,188.400 249.862,188.400 250.963 C 188.400 252.133,188.252 252.400,187.600 252.400 C 187.067 252.400,186.800 252.667,186.800 253.200 C 186.800 253.911,186.533 254.000,184.400 254.000 C 182.267 254.000,182.000 253.911,182.000 253.200 C 182.000 252.667,181.733 252.400,181.200 252.400 C 180.548 252.400,180.400 252.133,180.400 250.963 C 180.400 249.862,180.213 249.476,179.600 249.316 C 178.814 249.110,178.800 248.770,178.800 230.353 L 178.800 211.600 175.000 211.600 L 171.200 211.600 171.200 227.400 C 171.200 242.933,171.186 243.200,170.400 243.200 C 169.758 243.200,169.600 243.467,169.600 244.553 C 169.600 245.570,169.401 245.959,168.800 246.116 C 168.360 246.231,168.000 246.612,168.000 246.963 C 168.000 247.475,167.529 247.600,165.600 247.600 C 163.671 247.600,163.200 247.475,163.200 246.963 C 163.200 246.612,162.840 246.231,162.400 246.116 C 161.799 245.959,161.600 245.570,161.600 244.553 C 161.600 243.467,161.442 243.200,160.800 243.200 C 160.004 243.200,160.000 242.933,160.000 194.600 L 160.000 146.000 156.200 146.000 L 152.400 146.000 152.400 198.400 M0.000 168.807 L 0.000 172.814 9.700 172.707 L 19.400 172.600 19.514 168.700 L 19.629 164.800 9.814 164.800 L 0.000 164.800 0.000 168.807 M24.400 168.800 L 24.400 172.800 67.200 172.800 L 110.000 172.800 110.000 168.800 L 110.000 164.800 67.200 164.800 L 24.400 164.800 24.400 168.800 M290.000 168.800 L 290.000 172.800 332.800 172.800 L 375.600 172.800 375.600 168.800 L 375.600 164.800 332.800 164.800 L 290.000 164.800 290.000 168.800 M380.486 168.700 L 380.600 172.600 390.300 172.707 L 400.000 172.814 400.000 168.807 L 400.000 164.800 390.186 164.800 L 380.371 164.800 380.486 168.700 M134.410 179.590 C 133.965 180.035,133.313 180.400,132.963 180.400 C 132.612 180.400,132.235 180.743,132.126 181.163 C 132.016 181.583,131.583 182.016,131.163 182.126 C 130.743 182.235,130.400 182.591,130.400 182.916 C 130.400 183.241,130.040 183.601,129.600 183.716 C 129.160 183.831,128.800 184.191,128.800 184.516 C 128.800 184.841,128.440 185.201,128.000 185.316 C 127.560 185.431,127.200 185.812,127.200 186.163 C 127.200 186.513,126.951 186.800,126.647 186.800 C 126.342 186.800,125.999 187.160,125.884 187.600 C 125.769 188.040,125.388 188.400,125.037 188.400 C 124.667 188.400,124.400 188.735,124.400 189.200 C 124.400 189.733,124.133 190.000,123.600 190.000 C 123.067 190.000,122.800 190.267,122.800 190.800 C 122.800 191.333,122.533 191.600,122.000 191.600 C 121.560 191.600,121.200 191.858,121.200 192.173 C 121.200 192.488,120.840 192.860,120.400 193.000 C 119.960 193.140,119.600 193.491,119.600 193.780 C 119.600 194.070,119.240 194.401,118.800 194.516 C 118.360 194.631,118.000 194.991,118.000 195.316 C 118.000 195.641,117.640 196.001,117.200 196.116 C 116.760 196.231,116.400 196.591,116.400 196.916 C 116.400 197.241,116.040 197.601,115.600 197.716 C 115.160 197.831,114.800 198.191,114.800 198.516 C 114.800 198.841,114.440 199.201,114.000 199.316 C 113.394 199.475,113.200 199.862,113.200 200.916 C 113.200 201.970,113.006 202.357,112.400 202.516 C 111.779 202.678,111.600 203.062,111.600 204.231 C 111.600 205.104,111.306 206.062,110.900 206.510 C 110.262 207.215,110.200 208.488,110.200 220.772 L 110.200 234.260 111.399 235.530 C 112.901 237.122,117.497 237.482,117.874 236.037 C 117.984 235.617,118.417 235.184,118.837 235.074 C 119.567 234.884,119.600 234.338,119.600 222.457 C 119.600 211.581,119.678 209.996,120.229 209.688 C 120.575 209.494,120.960 208.578,121.084 207.653 C 121.227 206.585,121.582 205.824,122.055 205.571 C 122.465 205.351,122.800 204.908,122.800 204.586 C 122.800 204.264,123.058 204.000,123.373 204.000 C 123.688 204.000,124.060 203.640,124.200 203.200 C 124.340 202.760,124.712 202.400,125.027 202.400 C 125.342 202.400,125.600 202.040,125.600 201.600 C 125.600 201.067,125.867 200.800,126.400 200.800 C 126.933 200.800,127.200 200.533,127.200 200.000 C 127.200 199.467,127.467 199.200,128.000 199.200 C 128.533 199.200,128.800 198.933,128.800 198.400 C 128.800 197.867,129.067 197.600,129.600 197.600 C 130.133 197.600,130.400 197.333,130.400 196.800 C 130.400 196.267,130.667 196.000,131.200 196.000 C 131.733 196.000,132.000 195.733,132.000 195.200 C 132.000 194.667,132.267 194.400,132.800 194.400 C 133.333 194.400,133.600 194.133,133.600 193.600 C 133.600 193.067,133.867 192.800,134.400 192.800 C 134.933 192.800,135.200 192.533,135.200 192.000 C 135.200 191.467,135.467 191.200,136.000 191.200 C 136.440 191.200,136.800 190.951,136.800 190.647 C 136.800 190.342,137.160 189.999,137.600 189.884 C 138.040 189.769,138.400 189.388,138.400 189.037 C 138.400 188.501,138.976 188.400,142.037 188.400 C 145.338 188.400,145.694 188.326,145.884 187.600 C 146.002 187.150,146.430 186.800,146.861 186.800 C 147.574 186.800,147.621 186.519,147.514 182.900 L 147.400 179.000 141.310 178.890 C 135.647 178.787,135.164 178.836,134.410 179.590 M257.200 203.200 C 257.200 203.733,256.933 204.000,256.400 204.000 C 255.671 204.000,255.600 204.267,255.600 207.000 C 255.600 209.733,255.671 210.000,256.400 210.000 C 256.933 210.000,257.200 210.267,257.200 210.800 C 257.200 211.333,257.467 211.600,258.000 211.600 C 258.533 211.600,258.800 211.867,258.800 212.400 C 258.800 212.844,259.067 213.200,259.400 213.200 C 259.730 213.200,260.000 213.487,260.000 213.837 C 260.000 214.188,260.360 214.569,260.800 214.684 C 261.243 214.800,261.600 215.230,261.600 215.647 C 261.600 216.133,261.883 216.400,262.400 216.400 C 262.933 216.400,263.200 216.667,263.200 217.200 C 263.200 217.733,263.467 218.000,264.000 218.000 C 264.533 218.000,264.800 218.267,264.800 218.800 C 264.800 219.333,265.067 219.600,265.600 219.600 C 266.133 219.600,266.400 219.867,266.400 220.400 C 266.400 220.933,266.667 221.200,267.200 221.200 C 267.665 221.200,268.000 221.467,268.000 221.837 C 268.000 222.188,268.360 222.569,268.800 222.684 C 269.240 222.799,269.600 223.130,269.600 223.420 C 269.600 223.709,269.960 224.060,270.400 224.200 C 270.840 224.340,271.200 224.712,271.200 225.027 C 271.200 225.342,271.560 225.600,272.000 225.600 C 272.533 225.600,272.800 225.867,272.800 226.400 C 272.800 226.933,273.067 227.200,273.600 227.200 C 274.133 227.200,274.400 227.467,274.400 228.000 C 274.400 228.440,274.658 228.800,274.973 228.800 C 275.288 228.800,275.660 229.160,275.800 229.600 C 275.940 230.040,276.291 230.400,276.580 230.400 C 276.870 230.400,277.201 230.760,277.316 231.200 C 277.431 231.640,277.812 232.000,278.163 232.000 C 278.533 232.000,278.800 232.335,278.800 232.800 C 278.800 233.333,279.067 233.600,279.600 233.600 C 280.133 233.600,280.400 233.867,280.400 234.400 C 280.400 234.917,280.667 235.200,281.153 235.200 C 281.570 235.200,282.000 235.557,282.116 236.000 C 282.498 237.462,287.071 237.151,288.572 235.561 C 290.119 233.922,290.523 230.523,289.315 229.315 C 288.888 228.888,288.423 228.238,288.282 227.869 C 288.141 227.501,287.749 227.200,287.413 227.200 C 287.076 227.200,286.800 226.942,286.800 226.627 C 286.800 226.312,286.440 225.940,286.000 225.800 C 285.560 225.660,285.200 225.288,285.200 224.973 C 285.200 224.658,284.840 224.400,284.400 224.400 C 283.867 224.400,283.600 224.133,283.600 223.600 C 283.600 223.067,283.333 222.800,282.800 222.800 C 282.267 222.800,282.000 222.533,282.000 222.000 C 282.000 221.467,281.733 221.200,281.200 221.200 C 280.667 221.200,280.400 220.933,280.400 220.400 C 280.400 219.867,280.133 219.600,279.600 219.600 C 279.067 219.600,278.800 219.333,278.800 218.800 C 278.800 218.267,278.533 218.000,278.000 218.000 C 277.467 218.000,277.200 217.733,277.200 217.200 C 277.200 216.667,276.933 216.400,276.400 216.400 C 275.867 216.400,275.600 216.133,275.600 215.600 C 275.600 215.160,275.342 214.800,275.027 214.800 C 274.712 214.800,274.340 214.440,274.200 214.000 C 274.060 213.560,273.688 213.200,273.373 213.200 C 273.058 213.200,272.800 212.913,272.800 212.563 C 272.800 212.212,272.440 211.831,272.000 211.716 C 271.560 211.601,271.200 211.241,271.200 210.916 C 271.200 210.591,270.840 210.231,270.400 210.116 C 269.960 210.001,269.600 209.658,269.600 209.353 C 269.600 209.049,269.240 208.800,268.800 208.800 C 268.267 208.800,268.000 208.533,268.000 208.000 C 268.000 207.467,267.733 207.200,267.200 207.200 C 266.667 207.200,266.400 206.933,266.400 206.400 C 266.400 205.867,266.133 205.600,265.600 205.600 C 265.067 205.600,264.800 205.333,264.800 204.800 C 264.800 204.267,264.533 204.000,264.000 204.000 C 263.467 204.000,263.200 203.733,263.200 203.200 C 263.200 202.471,262.933 202.400,260.200 202.400 C 257.467 202.400,257.200 202.471,257.200 203.200 M101.600 234.600 C 101.239 235.035,100.282 235.200,98.114 235.200 C 95.462 235.200,95.102 235.290,94.916 236.000 C 94.800 236.443,94.370 236.800,93.953 236.800 C 93.467 236.800,93.200 237.083,93.200 237.600 C 93.200 238.133,92.933 238.400,92.400 238.400 C 91.867 238.400,91.600 238.667,91.600 239.200 C 91.600 239.733,91.333 240.000,90.800 240.000 C 90.267 240.000,90.000 240.267,90.000 240.800 C 90.000 241.333,89.733 241.600,89.200 241.600 C 88.667 241.600,88.400 241.867,88.400 242.400 C 88.400 242.933,88.133 243.200,87.600 243.200 C 87.160 243.200,86.800 243.458,86.800 243.773 C 86.800 244.088,86.440 244.460,86.000 244.600 C 85.560 244.740,85.200 245.091,85.200 245.380 C 85.200 245.670,84.840 246.001,84.400 246.116 C 83.960 246.231,83.600 246.612,83.600 246.963 C 83.600 247.313,83.313 247.600,82.963 247.600 C 82.612 247.600,82.235 247.943,82.126 248.363 C 82.016 248.783,81.583 249.216,81.163 249.326 C 80.743 249.435,80.400 249.812,80.400 250.163 C 80.400 250.513,80.142 250.800,79.827 250.800 C 79.512 250.800,79.140 251.160,79.000 251.600 C 78.860 252.040,78.509 252.400,78.220 252.400 C 77.930 252.400,77.599 252.760,77.484 253.200 C 77.369 253.640,76.988 254.000,76.637 254.000 C 76.267 254.000,76.000 254.335,76.000 254.800 C 76.000 255.333,75.733 255.600,75.200 255.600 C 74.667 255.600,74.400 255.867,74.400 256.400 C 74.400 256.933,74.133 257.200,73.600 257.200 C 73.067 257.200,72.800 257.467,72.800 258.000 C 72.800 258.533,72.533 258.800,72.000 258.800 C 71.535 258.800,71.200 259.067,71.200 259.437 C 71.200 259.788,70.840 260.169,70.400 260.284 C 69.960 260.399,69.600 260.730,69.600 261.020 C 69.600 261.309,69.240 261.660,68.800 261.800 C 68.360 261.940,68.000 262.291,68.000 262.580 C 68.000 262.870,67.640 263.201,67.200 263.316 C 66.760 263.431,66.400 263.812,66.400 264.163 C 66.400 264.513,66.113 264.800,65.763 264.800 C 65.412 264.800,65.031 265.160,64.916 265.600 C 64.801 266.040,64.441 266.400,64.116 266.400 C 63.791 266.400,63.431 266.760,63.316 267.200 C 63.201 267.640,62.870 268.000,62.580 268.000 C 62.291 268.000,61.940 268.360,61.800 268.800 C 61.660 269.240,61.309 269.600,61.020 269.600 C 60.730 269.600,60.399 269.960,60.284 270.400 C 60.169 270.840,59.788 271.200,59.437 271.200 C 59.067 271.200,58.800 271.535,58.800 272.000 C 58.800 272.533,58.533 272.800,58.000 272.800 C 57.467 272.800,57.200 273.067,57.200 273.600 C 57.200 274.133,56.933 274.400,56.400 274.400 C 55.867 274.400,55.600 274.667,55.600 275.200 C 55.600 275.717,55.333 276.000,54.847 276.000 C 54.430 276.000,54.000 276.357,53.884 276.800 C 53.769 277.240,53.388 277.600,53.037 277.600 C 52.687 277.600,52.400 277.858,52.400 278.173 C 52.400 278.488,52.040 278.860,51.600 279.000 C 51.160 279.140,50.800 279.491,50.800 279.780 C 50.800 280.070,50.440 280.401,50.000 280.516 C 49.560 280.631,49.200 281.012,49.200 281.363 C 49.200 281.713,48.913 282.000,48.563 282.000 C 48.212 282.000,47.835 282.343,47.726 282.763 C 47.616 283.183,47.183 283.616,46.763 283.726 C 46.343 283.835,46.000 284.212,46.000 284.563 C 46.000 284.913,45.742 285.200,45.427 285.200 C 45.112 285.200,44.740 285.560,44.600 286.000 C 44.460 286.440,44.088 286.800,43.773 286.800 C 43.458 286.800,43.200 287.160,43.200 287.600 C 43.200 288.133,42.933 288.400,42.400 288.400 C 41.867 288.400,41.600 288.667,41.600 289.200 C 41.600 289.733,41.333 290.000,40.800 290.000 C 40.267 290.000,40.000 290.267,40.000 290.800 C 40.000 291.333,39.733 291.600,39.200 291.600 C 38.667 291.600,38.400 291.867,38.400 292.400 C 38.400 292.933,38.133 293.200,37.600 293.200 C 37.160 293.200,36.800 293.458,36.800 293.773 C 36.800 294.088,36.440 294.460,36.000 294.600 C 35.560 294.740,35.200 295.091,35.200 295.380 C 35.200 295.670,34.840 296.001,34.400 296.116 C 33.960 296.231,33.600 296.591,33.600 296.916 C 33.600 297.241,33.240 297.601,32.800 297.716 C 32.360 297.831,32.000 298.191,32.000 298.516 C 32.000 298.841,31.640 299.201,31.200 299.316 C 30.760 299.431,30.400 299.812,30.400 300.163 C 30.400 300.513,30.142 300.800,29.827 300.800 C 29.512 300.800,29.140 301.160,29.000 301.600 C 28.860 302.040,28.509 302.400,28.220 302.400 C 27.930 302.400,27.599 302.760,27.484 303.200 C 27.369 303.640,26.988 304.000,26.637 304.000 C 26.267 304.000,26.000 304.335,26.000 304.800 C 26.000 305.333,25.733 305.600,25.200 305.600 C 24.667 305.600,24.400 305.867,24.400 306.400 C 24.400 306.933,24.133 307.200,23.600 307.200 C 23.067 307.200,22.800 307.467,22.800 308.000 C 22.800 308.517,22.533 308.800,22.047 308.800 C 21.630 308.800,21.200 309.157,21.084 309.600 C 20.969 310.040,20.588 310.400,20.237 310.400 C 19.887 310.400,19.600 310.658,19.600 310.973 C 19.600 311.288,19.240 311.660,18.800 311.800 C 18.360 311.940,18.000 312.291,18.000 312.580 C 18.000 312.870,17.640 313.201,17.200 313.316 C 16.760 313.431,16.400 313.791,16.400 314.116 C 16.400 314.441,16.040 314.801,15.600 314.916 C 15.160 315.031,14.800 315.391,14.800 315.716 C 14.800 316.041,14.440 316.401,14.000 316.516 C 13.560 316.631,13.200 317.012,13.200 317.363 C 13.200 317.713,12.949 318.000,12.643 318.000 C 11.816 318.000,11.600 318.920,11.600 322.433 C 11.600 324.915,11.724 325.600,12.173 325.600 C 12.488 325.600,12.860 325.960,13.000 326.400 C 13.215 327.077,13.605 327.200,15.531 327.200 C 17.374 327.200,17.903 327.048,18.307 326.400 C 18.582 325.960,19.182 325.600,19.641 325.600 C 20.125 325.600,20.559 325.280,20.674 324.837 C 20.784 324.417,21.217 323.984,21.637 323.874 C 22.057 323.765,22.400 323.409,22.400 323.084 C 22.400 322.759,22.760 322.399,23.200 322.284 C 23.640 322.169,24.000 321.788,24.000 321.437 C 24.000 321.087,24.188 320.800,24.417 320.800 C 24.646 320.800,26.916 318.730,29.460 316.200 C 32.004 313.670,34.234 311.600,34.416 311.600 C 34.597 311.600,34.860 311.240,35.000 310.800 C 35.140 310.360,35.512 310.000,35.827 310.000 C 36.142 310.000,36.400 309.713,36.400 309.363 C 36.400 309.012,36.760 308.631,37.200 308.516 C 37.640 308.401,38.000 307.989,38.000 307.600 C 38.000 307.211,38.360 306.799,38.800 306.684 C 39.240 306.569,39.600 306.209,39.600 305.884 C 39.600 305.559,39.960 305.199,40.400 305.084 C 40.840 304.969,41.200 304.588,41.200 304.237 C 41.200 303.887,41.397 303.600,41.637 303.600 C 42.208 303.600,53.600 292.208,53.600 291.637 C 53.600 291.397,53.960 291.200,54.400 291.200 C 54.933 291.200,55.200 290.933,55.200 290.400 C 55.200 289.935,55.467 289.600,55.837 289.600 C 56.188 289.600,56.569 289.240,56.684 288.800 C 56.799 288.360,57.159 288.000,57.484 288.000 C 57.809 288.000,58.169 287.640,58.284 287.200 C 58.399 286.760,58.667 286.400,58.879 286.400 C 59.092 286.400,60.978 284.690,63.072 282.600 C 65.165 280.510,67.028 278.800,67.212 278.800 C 67.396 278.800,67.660 278.440,67.800 278.000 C 67.940 277.560,68.312 277.200,68.627 277.200 C 68.942 277.200,69.200 276.936,69.200 276.614 C 69.200 276.292,69.560 275.835,70.000 275.600 C 70.440 275.365,70.800 274.929,70.800 274.633 C 70.800 274.336,71.160 273.999,71.600 273.884 C 72.040 273.769,72.400 273.409,72.400 273.084 C 72.400 272.759,72.760 272.399,73.200 272.284 C 73.640 272.169,74.000 271.809,74.000 271.484 C 74.000 271.159,74.360 270.799,74.800 270.684 C 75.240 270.569,75.600 270.188,75.600 269.837 C 75.600 269.487,75.876 269.200,76.213 269.200 C 76.549 269.200,76.926 268.937,77.050 268.615 C 77.173 268.294,77.617 267.921,78.037 267.788 C 78.457 267.655,78.800 267.288,78.800 266.973 C 78.800 265.742,80.142 266.525,82.962 269.400 C 84.580 271.050,86.105 272.400,86.352 272.400 C 86.598 272.400,86.800 272.687,86.800 273.037 C 86.800 273.388,87.160 273.769,87.600 273.884 C 88.043 274.000,88.400 274.430,88.400 274.847 C 88.400 275.333,88.683 275.600,89.200 275.600 C 89.665 275.600,90.000 275.867,90.000 276.237 C 90.000 276.588,90.360 276.969,90.800 277.084 C 91.240 277.199,91.600 277.559,91.600 277.884 C 91.600 278.209,91.960 278.569,92.400 278.684 C 92.840 278.799,93.200 279.159,93.200 279.484 C 93.200 279.809,93.560 280.169,94.000 280.284 C 94.440 280.399,94.800 280.665,94.800 280.875 C 94.800 281.374,101.426 288.000,101.925 288.000 C 102.135 288.000,102.401 288.360,102.516 288.800 C 102.631 289.240,102.991 289.600,103.316 289.600 C 103.641 289.600,104.001 289.960,104.116 290.400 C 104.231 290.840,104.612 291.200,104.963 291.200 C 105.333 291.200,105.600 291.535,105.600 292.000 C 105.600 292.533,105.867 292.800,106.400 292.800 C 106.933 292.800,107.200 293.067,107.200 293.600 C 107.200 294.133,107.467 294.400,108.000 294.400 C 108.533 294.400,108.800 294.667,108.800 295.200 C 108.800 295.733,109.067 296.000,109.600 296.000 C 110.133 296.000,110.400 296.267,110.400 296.800 C 110.400 297.240,110.578 297.600,110.796 297.600 C 111.014 297.600,112.883 299.310,114.949 301.400 C 117.015 303.490,118.907 305.200,119.153 305.200 C 119.399 305.200,119.600 305.560,119.600 306.000 C 119.600 306.533,119.867 306.800,120.400 306.800 C 120.865 306.800,121.200 307.067,121.200 307.437 C 121.200 307.788,121.560 308.169,122.000 308.284 C 122.440 308.399,122.800 308.759,122.800 309.084 C 122.800 309.409,123.160 309.769,123.600 309.884 C 124.040 309.999,124.400 310.359,124.400 310.684 C 124.400 311.009,124.760 311.369,125.200 311.484 C 125.640 311.599,126.000 311.959,126.000 312.284 C 126.000 312.609,126.360 312.969,126.800 313.084 C 127.240 313.199,127.600 313.559,127.600 313.884 C 127.600 314.209,127.960 314.569,128.400 314.684 C 128.840 314.799,129.200 315.083,129.200 315.316 C 129.200 315.548,130.190 316.705,131.400 317.886 C 134.091 320.513,134.091 320.356,131.400 322.983 C 130.190 324.164,129.200 325.305,129.200 325.519 C 129.200 325.732,128.840 326.001,128.400 326.116 C 127.960 326.231,127.600 326.591,127.600 326.916 C 127.600 327.241,127.240 327.601,126.800 327.716 C 126.360 327.831,126.000 328.191,126.000 328.516 C 126.000 328.841,125.640 329.201,125.200 329.316 C 124.760 329.431,124.400 329.812,124.400 330.163 C 124.400 330.513,124.211 330.800,123.980 330.800 C 123.432 330.800,113.600 340.632,113.600 341.180 C 113.600 341.411,113.313 341.600,112.963 341.600 C 112.612 341.600,112.231 341.960,112.116 342.400 C 112.001 342.840,111.641 343.200,111.316 343.200 C 110.991 343.200,110.631 343.560,110.516 344.000 C 110.401 344.440,110.041 344.800,109.716 344.800 C 109.391 344.800,109.031 345.160,108.916 345.600 C 108.801 346.040,108.537 346.400,108.330 346.400 C 107.808 346.400,96.400 357.852,96.400 358.376 C 96.400 358.609,96.113 358.800,95.763 358.800 C 95.412 358.800,95.031 359.160,94.916 359.600 C 94.801 360.040,94.441 360.400,94.116 360.400 C 93.791 360.400,93.435 360.743,93.326 361.163 C 93.216 361.583,92.783 362.016,92.363 362.126 C 91.943 362.235,91.600 362.612,91.600 362.963 C 91.600 363.313,91.411 363.600,91.180 363.600 C 90.632 363.600,80.800 373.432,80.800 373.980 C 80.800 374.211,80.513 374.400,80.163 374.400 C 79.812 374.400,79.431 374.760,79.316 375.200 C 79.201 375.640,78.841 376.000,78.516 376.000 C 78.191 376.000,77.831 376.360,77.716 376.800 C 77.601 377.240,77.241 377.600,76.916 377.600 C 76.591 377.600,76.231 377.960,76.116 378.400 C 76.001 378.840,75.652 379.200,75.341 379.200 C 75.030 379.200,74.657 379.515,74.514 379.900 C 74.370 380.285,73.926 380.835,73.526 381.123 C 72.435 381.908,72.487 386.487,73.600 387.600 C 74.894 388.894,82.000 388.728,82.000 387.404 C 82.000 387.123,82.360 386.799,82.800 386.684 C 83.240 386.569,83.600 386.209,83.600 385.884 C 83.600 385.559,83.960 385.199,84.400 385.084 C 84.840 384.969,85.200 384.609,85.200 384.284 C 85.200 383.959,85.560 383.599,86.000 383.484 C 86.440 383.369,86.800 382.988,86.800 382.637 C 86.800 382.287,87.058 382.000,87.373 382.000 C 87.688 382.000,88.060 381.640,88.200 381.200 C 88.340 380.760,88.712 380.400,89.027 380.400 C 89.342 380.400,89.600 380.113,89.600 379.763 C 89.600 379.412,89.960 379.031,90.400 378.916 C 90.843 378.800,91.200 378.370,91.200 377.953 C 91.200 377.467,91.483 377.200,92.000 377.200 C 92.533 377.200,92.800 376.933,92.800 376.400 C 92.800 375.867,93.067 375.600,93.600 375.600 C 94.133 375.600,94.400 375.333,94.400 374.800 C 94.400 374.267,94.667 374.000,95.200 374.000 C 95.640 374.000,96.000 373.742,96.000 373.427 C 96.000 373.112,96.360 372.740,96.800 372.600 C 97.240 372.460,97.600 372.088,97.600 371.773 C 97.600 371.458,97.887 371.200,98.237 371.200 C 98.588 371.200,98.969 370.840,99.084 370.400 C 99.199 369.960,99.559 369.600,99.884 369.600 C 100.209 369.600,100.569 369.240,100.684 368.800 C 100.799 368.360,101.159 368.000,101.484 368.000 C 101.809 368.000,102.169 367.640,102.284 367.200 C 102.399 366.760,102.759 366.400,103.084 366.400 C 103.409 366.400,103.769 366.040,103.884 365.600 C 103.999 365.160,104.330 364.800,104.620 364.800 C 104.909 364.800,105.260 364.440,105.400 364.000 C 105.540 363.560,105.912 363.200,106.227 363.200 C 106.542 363.200,106.800 362.840,106.800 362.400 C 106.800 361.867,107.067 361.600,107.600 361.600 C 108.133 361.600,108.400 361.333,108.400 360.800 C 108.400 360.267,108.667 360.000,109.200 360.000 C 109.733 360.000,110.000 359.733,110.000 359.200 C 110.000 358.667,110.267 358.400,110.800 358.400 C 111.333 358.400,111.600 358.133,111.600 357.600 C 111.600 357.067,111.867 356.800,112.400 356.800 C 112.840 356.800,113.200 356.542,113.200 356.227 C 113.200 355.912,113.560 355.540,114.000 355.400 C 114.440 355.260,114.800 354.888,114.800 354.573 C 114.800 354.258,115.087 354.000,115.437 354.000 C 115.788 354.000,116.169 353.640,116.284 353.200 C 116.399 352.760,116.759 352.400,117.084 352.400 C 117.409 352.400,117.769 352.040,117.884 351.600 C 117.999 351.160,118.359 350.800,118.684 350.800 C 119.009 350.800,119.369 350.440,119.484 350.000 C 119.599 349.560,119.959 349.200,120.284 349.200 C 120.609 349.200,120.969 348.840,121.084 348.400 C 121.199 347.960,121.530 347.600,121.820 347.600 C 122.109 347.600,122.460 347.240,122.600 346.800 C 122.740 346.360,123.112 346.000,123.427 346.000 C 123.742 346.000,124.000 345.640,124.000 345.200 C 124.000 344.667,124.267 344.400,124.800 344.400 C 125.333 344.400,125.600 344.133,125.600 343.600 C 125.600 343.067,125.867 342.800,126.400 342.800 C 126.933 342.800,127.200 342.533,127.200 342.000 C 127.200 341.483,127.467 341.200,127.953 341.200 C 128.370 341.200,128.800 340.843,128.916 340.400 C 129.031 339.960,129.412 339.600,129.763 339.600 C 130.113 339.600,130.400 339.342,130.400 339.027 C 130.400 338.712,130.760 338.340,131.200 338.200 C 131.640 338.060,132.000 337.709,132.000 337.420 C 132.000 337.130,132.360 336.799,132.800 336.684 C 133.240 336.569,133.600 336.209,133.600 335.884 C 133.600 335.559,133.960 335.199,134.400 335.084 C 134.840 334.969,135.200 334.609,135.200 334.284 C 135.200 333.959,135.560 333.599,136.000 333.484 C 136.440 333.369,136.800 332.988,136.800 332.637 C 136.800 332.287,137.058 332.000,137.373 332.000 C 137.688 332.000,138.060 331.640,138.200 331.200 C 138.340 330.760,138.712 330.400,139.027 330.400 C 139.342 330.400,139.600 330.113,139.600 329.763 C 139.600 329.412,139.960 329.031,140.400 328.916 C 140.843 328.800,141.200 328.370,141.200 327.953 C 141.200 327.467,141.483 327.200,142.000 327.200 C 142.533 327.200,142.800 326.933,142.800 326.400 C 142.800 325.867,143.067 325.600,143.600 325.600 C 144.133 325.600,144.400 325.333,144.400 324.800 C 144.400 324.267,144.667 324.000,145.200 324.000 C 145.640 324.000,146.000 323.742,146.000 323.427 C 146.000 323.112,146.360 322.740,146.800 322.600 C 147.240 322.460,147.600 322.109,147.600 321.820 C 147.600 321.530,147.960 321.199,148.400 321.084 C 148.840 320.969,149.200 320.609,149.200 320.284 C 149.200 319.959,149.560 319.599,150.000 319.484 C 150.440 319.369,150.800 319.009,150.800 318.684 C 150.800 318.359,151.160 317.999,151.600 317.884 C 152.040 317.769,152.400 317.409,152.400 317.084 C 152.400 316.759,152.760 316.399,153.200 316.284 C 153.640 316.169,154.000 315.788,154.000 315.437 C 154.000 315.087,154.258 314.800,154.573 314.800 C 154.888 314.800,155.260 314.440,155.400 314.000 C 155.540 313.560,155.912 313.200,156.227 313.200 C 156.542 313.200,156.800 312.840,156.800 312.400 C 156.800 311.867,157.067 311.600,157.600 311.600 C 158.133 311.600,158.400 311.333,158.400 310.800 C 158.400 310.267,158.667 310.000,159.200 310.000 C 159.733 310.000,160.000 309.733,160.000 309.200 C 160.000 308.667,160.267 308.400,160.800 308.400 C 161.333 308.400,161.600 308.133,161.600 307.600 C 161.600 307.067,161.867 306.800,162.400 306.800 C 162.933 306.800,163.200 306.533,163.200 306.000 C 163.200 305.560,163.451 305.200,163.757 305.200 C 164.467 305.200,164.800 304.325,164.800 302.456 C 164.800 301.473,165.068 300.748,165.600 300.293 C 166.726 299.329,166.726 296.557,165.600 296.200 C 164.929 295.987,164.800 295.595,164.800 293.773 C 164.800 291.867,164.702 291.600,164.000 291.600 C 163.467 291.600,163.200 291.333,163.200 290.800 C 163.200 290.267,162.933 290.000,162.400 290.000 C 161.867 290.000,161.600 289.733,161.600 289.200 C 161.600 288.667,161.333 288.400,160.800 288.400 C 160.267 288.400,160.000 288.133,160.000 287.600 C 160.000 287.067,159.733 286.800,159.200 286.800 C 158.667 286.800,158.400 286.533,158.400 286.000 C 158.400 285.560,158.142 285.200,157.827 285.200 C 157.512 285.200,157.140 284.840,157.000 284.400 C 156.860 283.960,156.488 283.600,156.173 283.600 C 155.858 283.600,155.600 283.313,155.600 282.963 C 155.600 282.612,155.257 282.235,154.837 282.126 C 154.417 282.016,153.984 281.583,153.874 281.163 C 153.765 280.743,153.409 280.400,153.084 280.400 C 152.759 280.400,152.399 280.040,152.284 279.600 C 152.169 279.160,151.809 278.800,151.484 278.800 C 151.159 278.800,150.799 278.440,150.684 278.000 C 150.569 277.560,150.188 277.200,149.837 277.200 C 149.487 277.200,149.200 276.951,149.200 276.647 C 149.200 276.342,148.840 275.999,148.400 275.884 C 147.960 275.769,147.600 275.388,147.600 275.037 C 147.600 274.667,147.265 274.400,146.800 274.400 C 146.267 274.400,146.000 274.133,146.000 273.600 C 146.000 273.067,145.733 272.800,145.200 272.800 C 144.667 272.800,144.400 272.533,144.400 272.000 C 144.400 271.467,144.133 271.200,143.600 271.200 C 143.067 271.200,142.800 270.933,142.800 270.400 C 142.800 269.867,142.533 269.600,142.000 269.600 C 141.467 269.600,141.200 269.333,141.200 268.800 C 141.200 268.360,140.951 268.000,140.647 268.000 C 140.342 268.000,139.999 267.640,139.884 267.200 C 139.769 266.760,139.409 266.400,139.084 266.400 C 138.759 266.400,138.399 266.040,138.284 265.600 C 138.169 265.160,137.809 264.800,137.484 264.800 C 137.159 264.800,136.799 264.440,136.684 264.000 C 136.569 263.560,136.209 263.200,135.884 263.200 C 135.559 263.200,135.199 262.840,135.084 262.400 C 134.969 261.960,134.609 261.600,134.284 261.600 C 133.959 261.600,133.599 261.240,133.484 260.800 C 133.369 260.360,132.988 260.000,132.637 260.000 C 132.287 260.000,132.000 259.730,132.000 259.400 C 132.000 259.067,131.644 258.800,131.200 258.800 C 130.667 258.800,130.400 258.533,130.400 258.000 C 130.400 257.467,130.133 257.200,129.600 257.200 C 129.067 257.200,128.800 256.933,128.800 256.400 C 128.800 255.867,128.533 255.600,128.000 255.600 C 127.467 255.600,127.200 255.333,127.200 254.800 C 127.200 254.267,126.933 254.000,126.400 254.000 C 125.867 254.000,125.600 253.733,125.600 253.200 C 125.600 252.735,125.333 252.400,124.963 252.400 C 124.612 252.400,124.231 252.040,124.116 251.600 C 124.001 251.160,123.658 250.800,123.353 250.800 C 123.049 250.800,122.800 250.513,122.800 250.163 C 122.800 249.812,122.457 249.435,122.037 249.326 C 121.617 249.216,121.184 248.783,121.074 248.363 C 120.965 247.943,120.609 247.600,120.284 247.600 C 119.959 247.600,119.599 247.240,119.484 246.800 C 119.369 246.360,119.009 246.000,118.684 246.000 C 118.359 246.000,117.999 245.640,117.884 245.200 C 117.769 244.760,117.388 244.400,117.037 244.400 C 116.687 244.400,116.400 244.142,116.400 243.827 C 116.400 243.512,116.040 243.140,115.600 243.000 C 115.160 242.860,114.800 242.488,114.800 242.173 C 114.800 241.858,114.440 241.600,114.000 241.600 C 113.467 241.600,113.200 241.333,113.200 240.800 C 113.200 240.267,112.933 240.000,112.400 240.000 C 111.867 240.000,111.600 239.733,111.600 239.200 C 111.600 238.667,111.333 238.400,110.800 238.400 C 110.267 238.400,110.000 238.133,110.000 237.600 C 110.000 237.067,109.733 236.800,109.200 236.800 C 108.667 236.800,108.400 236.533,108.400 236.000 C 108.400 235.291,108.133 235.200,106.049 235.200 C 104.447 235.200,103.539 235.009,103.200 234.600 C 102.926 234.270,102.566 234.000,102.400 234.000 C 102.234 234.000,101.874 234.270,101.600 234.600 M296.800 234.600 C 296.461 235.009,295.553 235.200,293.951 235.200 C 291.867 235.200,291.600 235.291,291.600 236.000 C 291.600 236.533,291.333 236.800,290.800 236.800 C 290.267 236.800,290.000 237.067,290.000 237.600 C 290.000 238.133,289.733 238.400,289.200 238.400 C 288.667 238.400,288.400 238.667,288.400 239.200 C 288.400 239.733,288.133 240.000,287.600 240.000 C 287.067 240.000,286.800 240.267,286.800 240.800 C 286.800 241.333,286.533 241.600,286.000 241.600 C 285.560 241.600,285.200 241.858,285.200 242.173 C 285.200 242.488,284.840 242.860,284.400 243.000 C 283.960 243.140,283.600 243.512,283.600 243.827 C 283.600 244.142,283.313 244.400,282.963 244.400 C 282.612 244.400,282.235 244.743,282.126 245.163 C 282.016 245.583,281.583 246.016,281.163 246.126 C 280.743 246.235,280.400 246.591,280.400 246.916 C 280.400 247.241,280.040 247.601,279.600 247.716 C 279.160 247.831,278.800 248.212,278.800 248.563 C 278.800 248.913,278.513 249.200,278.163 249.200 C 277.812 249.200,277.431 249.560,277.316 250.000 C 277.201 250.440,276.879 250.800,276.600 250.800 C 276.321 250.800,275.999 251.160,275.884 251.600 C 275.769 252.040,275.388 252.400,275.037 252.400 C 274.667 252.400,274.400 252.735,274.400 253.200 C 274.400 253.733,274.133 254.000,273.600 254.000 C 273.067 254.000,272.800 254.267,272.800 254.800 C 272.800 255.333,272.533 255.600,272.000 255.600 C 271.467 255.600,271.200 255.867,271.200 256.400 C 271.200 256.933,270.933 257.200,270.400 257.200 C 269.867 257.200,269.600 257.467,269.600 258.000 C 269.600 258.533,269.333 258.800,268.800 258.800 C 268.360 258.800,268.000 259.049,268.000 259.353 C 268.000 259.658,267.640 260.001,267.200 260.116 C 266.760 260.231,266.400 260.591,266.400 260.916 C 266.400 261.241,266.040 261.601,265.600 261.716 C 265.160 261.831,264.800 262.191,264.800 262.516 C 264.800 262.841,264.440 263.201,264.000 263.316 C 263.560 263.431,263.200 263.791,263.200 264.116 C 263.200 264.441,262.840 264.801,262.400 264.916 C 261.960 265.031,261.600 265.412,261.600 265.763 C 261.600 266.113,261.313 266.400,260.963 266.400 C 260.612 266.400,260.231 266.760,260.116 267.200 C 260.001 267.640,259.658 268.000,259.353 268.000 C 259.049 268.000,258.800 268.360,258.800 268.800 C 258.800 269.333,258.533 269.600,258.000 269.600 C 257.467 269.600,257.200 269.867,257.200 270.400 C 257.200 270.933,256.933 271.200,256.400 271.200 C 255.867 271.200,255.600 271.467,255.600 272.000 C 255.600 272.533,255.333 272.800,254.800 272.800 C 254.267 272.800,254.000 273.067,254.000 273.600 C 254.000 274.117,253.733 274.400,253.247 274.400 C 252.830 274.400,252.400 274.757,252.284 275.200 C 252.169 275.640,251.788 276.000,251.437 276.000 C 251.087 276.000,250.800 276.249,250.800 276.553 C 250.800 276.858,250.440 277.201,250.000 277.316 C 249.560 277.431,249.200 277.791,249.200 278.116 C 249.200 278.441,248.840 278.801,248.400 278.916 C 247.960 279.031,247.600 279.391,247.600 279.716 C 247.600 280.041,247.240 280.401,246.800 280.516 C 246.360 280.631,246.000 280.991,246.000 281.316 C 246.000 281.641,245.640 282.001,245.200 282.116 C 244.760 282.231,244.400 282.612,244.400 282.963 C 244.400 283.313,244.142 283.600,243.827 283.600 C 243.512 283.600,243.140 283.960,243.000 284.400 C 242.860 284.840,242.488 285.200,242.173 285.200 C 241.858 285.200,241.600 285.560,241.600 286.000 C 241.600 286.533,241.333 286.800,240.800 286.800 C 240.267 286.800,240.000 287.067,240.000 287.600 C 240.000 288.133,239.733 288.400,239.200 288.400 C 238.667 288.400,238.400 288.667,238.400 289.200 C 238.400 289.733,238.133 290.000,237.600 290.000 C 237.067 290.000,236.800 290.267,236.800 290.800 C 236.800 291.333,236.533 291.600,236.000 291.600 C 235.298 291.600,235.200 291.867,235.200 293.773 C 235.200 295.595,235.071 295.987,234.400 296.200 C 233.759 296.404,233.600 296.805,233.600 298.224 C 233.600 299.560,233.796 300.116,234.400 300.493 C 235.021 300.881,235.200 301.426,235.200 302.934 C 235.200 304.538,235.339 304.911,236.000 305.084 C 236.443 305.200,236.800 305.630,236.800 306.047 C 236.800 306.533,237.083 306.800,237.600 306.800 C 238.133 306.800,238.400 307.067,238.400 307.600 C 238.400 308.133,238.667 308.400,239.200 308.400 C 239.733 308.400,240.000 308.667,240.000 309.200 C 240.000 309.733,240.267 310.000,240.800 310.000 C 241.333 310.000,241.600 310.267,241.600 310.800 C 241.600 311.333,241.867 311.600,242.400 311.600 C 242.933 311.600,243.200 311.867,243.200 312.400 C 243.200 312.840,243.458 313.200,243.773 313.200 C 244.088 313.200,244.460 313.560,244.600 314.000 C 244.740 314.440,245.112 314.800,245.427 314.800 C 245.742 314.800,246.000 315.087,246.000 315.437 C 246.000 315.788,246.360 316.169,246.800 316.284 C 247.240 316.399,247.600 316.759,247.600 317.084 C 247.600 317.409,247.960 317.769,248.400 317.884 C 248.840 317.999,249.200 318.359,249.200 318.684 C 249.200 319.009,249.560 319.369,250.000 319.484 C 250.440 319.599,250.800 319.930,250.800 320.220 C 250.800 320.509,251.160 320.860,251.600 321.000 C 252.040 321.140,252.400 321.491,252.400 321.780 C 252.400 322.070,252.760 322.401,253.200 322.516 C 253.640 322.631,254.000 323.012,254.000 323.363 C 254.000 323.733,254.335 324.000,254.800 324.000 C 255.333 324.000,255.600 324.267,255.600 324.800 C 255.600 325.333,255.867 325.600,256.400 325.600 C 256.933 325.600,257.200 325.867,257.200 326.400 C 257.200 326.933,257.467 327.200,258.000 327.200 C 258.517 327.200,258.800 327.467,258.800 327.953 C 258.800 328.370,259.157 328.800,259.600 328.916 C 260.040 329.031,260.400 329.412,260.400 329.763 C 260.400 330.113,260.658 330.400,260.973 330.400 C 261.288 330.400,261.660 330.760,261.800 331.200 C 261.940 331.640,262.312 332.000,262.627 332.000 C 262.942 332.000,263.200 332.287,263.200 332.637 C 263.200 332.988,263.560 333.369,264.000 333.484 C 264.440 333.599,264.800 333.959,264.800 334.284 C 264.800 334.609,265.160 334.969,265.600 335.084 C 266.040 335.199,266.400 335.559,266.400 335.884 C 266.400 336.209,266.760 336.569,267.200 336.684 C 267.640 336.799,268.000 337.130,268.000 337.420 C 268.000 337.709,268.360 338.060,268.800 338.200 C 269.240 338.340,269.600 338.712,269.600 339.027 C 269.600 339.342,269.887 339.600,270.237 339.600 C 270.588 339.600,270.969 339.960,271.084 340.400 C 271.200 340.843,271.630 341.200,272.047 341.200 C 272.533 341.200,272.800 341.483,272.800 342.000 C 272.800 342.533,273.067 342.800,273.600 342.800 C 274.133 342.800,274.400 343.067,274.400 343.600 C 274.400 344.133,274.667 344.400,275.200 344.400 C 275.733 344.400,276.000 344.667,276.000 345.200 C 276.000 345.665,276.267 346.000,276.637 346.000 C 276.988 346.000,277.369 346.360,277.484 346.800 C 277.599 347.240,277.930 347.600,278.220 347.600 C 278.509 347.600,278.860 347.960,279.000 348.400 C 279.140 348.840,279.491 349.200,279.780 349.200 C 280.070 349.200,280.401 349.560,280.516 350.000 C 280.631 350.440,280.991 350.800,281.316 350.800 C 281.641 350.800,282.001 351.160,282.116 351.600 C 282.231 352.040,282.591 352.400,282.916 352.400 C 283.241 352.400,283.601 352.760,283.716 353.200 C 283.831 353.640,284.212 354.000,284.563 354.000 C 284.913 354.000,285.200 354.258,285.200 354.573 C 285.200 354.888,285.560 355.260,286.000 355.400 C 286.440 355.540,286.800 355.912,286.800 356.227 C 286.800 356.542,287.160 356.800,287.600 356.800 C 288.133 356.800,288.400 357.067,288.400 357.600 C 288.400 358.133,288.667 358.400,289.200 358.400 C 289.733 358.400,290.000 358.667,290.000 359.200 C 290.000 359.733,290.267 360.000,290.800 360.000 C 291.333 360.000,291.600 360.267,291.600 360.800 C 291.600 361.333,291.867 361.600,292.400 361.600 C 292.933 361.600,293.200 361.867,293.200 362.400 C 293.200 362.840,293.458 363.200,293.773 363.200 C 294.088 363.200,294.460 363.560,294.600 364.000 C 294.740 364.440,295.091 364.800,295.380 364.800 C 295.670 364.800,296.001 365.160,296.116 365.600 C 296.231 366.040,296.591 366.400,296.916 366.400 C 297.241 366.400,297.601 366.760,297.716 367.200 C 297.831 367.640,298.191 368.000,298.516 368.000 C 298.841 368.000,299.201 368.360,299.316 368.800 C 299.431 369.240,299.812 369.600,300.163 369.600 C 300.513 369.600,300.800 369.858,300.800 370.173 C 300.800 370.488,301.160 370.860,301.600 371.000 C 302.040 371.140,302.400 371.512,302.400 371.827 C 302.400 372.142,302.687 372.400,303.037 372.400 C 303.388 372.400,303.769 372.760,303.884 373.200 C 304.000 373.643,304.430 374.000,304.847 374.000 C 305.333 374.000,305.600 374.283,305.600 374.800 C 305.600 375.333,305.867 375.600,306.400 375.600 C 306.933 375.600,307.200 375.867,307.200 376.400 C 307.200 376.933,307.467 377.200,308.000 377.200 C 308.517 377.200,308.800 377.467,308.800 377.953 C 308.800 378.370,309.157 378.800,309.600 378.916 C 310.040 379.031,310.400 379.412,310.400 379.763 C 310.400 380.113,310.658 380.400,310.973 380.400 C 311.288 380.400,311.660 380.760,311.800 381.200 C 311.940 381.640,312.312 382.000,312.627 382.000 C 312.942 382.000,313.200 382.287,313.200 382.637 C 313.200 382.988,313.560 383.369,314.000 383.484 C 314.440 383.599,314.800 383.959,314.800 384.284 C 314.800 384.609,315.160 384.969,315.600 385.084 C 316.040 385.199,316.400 385.559,316.400 385.884 C 316.400 386.209,316.760 386.569,317.200 386.684 C 317.640 386.799,318.000 387.123,318.000 387.404 C 318.000 388.823,325.008 388.882,326.330 387.474 C 327.540 386.187,327.583 382.320,326.400 381.307 C 325.960 380.930,325.600 380.302,325.600 379.911 C 325.600 379.520,325.313 379.200,324.963 379.200 C 324.612 379.200,324.231 378.840,324.116 378.400 C 324.001 377.960,323.641 377.600,323.316 377.600 C 322.991 377.600,322.631 377.240,322.516 376.800 C 322.401 376.360,322.041 376.000,321.716 376.000 C 321.391 376.000,321.031 375.640,320.916 375.200 C 320.801 374.760,320.441 374.400,320.116 374.400 C 319.791 374.400,319.431 374.040,319.316 373.600 C 319.201 373.160,318.870 372.800,318.580 372.800 C 318.291 372.800,317.940 372.440,317.800 372.000 C 317.660 371.560,317.395 371.200,317.210 371.200 C 316.772 371.200,311.600 366.028,311.600 365.590 C 311.600 365.405,311.240 365.140,310.800 365.000 C 310.360 364.860,310.000 364.488,310.000 364.173 C 310.000 363.858,309.713 363.600,309.363 363.600 C 309.012 363.600,308.631 363.240,308.516 362.800 C 308.401 362.360,308.041 362.000,307.716 362.000 C 307.391 362.000,307.031 361.640,306.916 361.200 C 306.801 360.760,306.441 360.400,306.116 360.400 C 305.791 360.400,305.431 360.040,305.316 359.600 C 305.201 359.160,304.841 358.800,304.516 358.800 C 304.191 358.800,303.831 358.440,303.716 358.000 C 303.601 357.560,303.241 357.200,302.916 357.200 C 302.591 357.200,302.231 356.840,302.116 356.400 C 302.001 355.960,301.670 355.600,301.380 355.600 C 301.091 355.600,300.740 355.240,300.600 354.800 C 300.460 354.360,300.192 354.000,300.005 354.000 C 299.560 354.000,296.000 350.440,296.000 349.995 C 296.000 349.808,295.640 349.540,295.200 349.400 C 294.760 349.260,294.400 348.888,294.400 348.573 C 294.400 348.258,294.113 348.000,293.763 348.000 C 293.412 348.000,293.031 347.640,292.916 347.200 C 292.801 346.760,292.441 346.400,292.116 346.400 C 291.791 346.400,291.431 346.040,291.316 345.600 C 291.201 345.160,290.841 344.800,290.516 344.800 C 290.191 344.800,289.831 344.440,289.716 344.000 C 289.601 343.560,289.241 343.200,288.916 343.200 C 288.591 343.200,288.231 342.840,288.116 342.400 C 288.001 341.960,287.641 341.600,287.316 341.600 C 286.991 341.600,286.631 341.240,286.516 340.800 C 286.401 340.360,286.070 340.000,285.780 340.000 C 285.491 340.000,285.140 339.640,285.000 339.200 C 284.860 338.760,284.595 338.400,284.410 338.400 C 283.972 338.400,278.800 333.228,278.800 332.790 C 278.800 332.605,278.440 332.340,278.000 332.200 C 277.560 332.060,277.200 331.709,277.200 331.420 C 277.200 331.130,276.840 330.799,276.400 330.684 C 275.960 330.569,275.600 330.209,275.600 329.884 C 275.600 329.559,275.240 329.199,274.800 329.084 C 274.360 328.969,274.000 328.609,274.000 328.284 C 274.000 327.959,273.640 327.599,273.200 327.484 C 272.760 327.369,272.400 326.988,272.400 326.637 C 272.400 326.267,272.065 326.000,271.600 326.000 C 271.160 326.000,270.800 325.804,270.800 325.565 C 270.800 325.326,269.810 324.164,268.600 322.983 C 267.390 321.801,266.400 320.635,266.400 320.390 C 266.400 319.875,269.928 316.400,270.450 316.400 C 270.643 316.400,270.800 316.113,270.800 315.763 C 270.800 315.412,271.160 315.031,271.600 314.916 C 272.043 314.800,272.400 314.370,272.400 313.953 C 272.400 313.467,272.683 313.200,273.200 313.200 C 273.733 313.200,274.000 312.933,274.000 312.400 C 274.000 311.867,274.267 311.600,274.800 311.600 C 275.333 311.600,275.600 311.333,275.600 310.800 C 275.600 310.267,275.867 310.000,276.400 310.000 C 276.933 310.000,277.200 309.733,277.200 309.200 C 277.200 308.667,277.467 308.400,278.000 308.400 C 278.533 308.400,278.800 308.133,278.800 307.600 C 278.800 307.067,279.067 306.800,279.600 306.800 C 280.133 306.800,280.400 306.533,280.400 306.000 C 280.400 305.560,280.601 305.200,280.847 305.200 C 281.093 305.200,282.985 303.490,285.051 301.400 C 287.117 299.310,288.986 297.600,289.204 297.600 C 289.422 297.600,289.600 297.240,289.600 296.800 C 289.600 296.267,289.867 296.000,290.400 296.000 C 290.933 296.000,291.200 295.733,291.200 295.200 C 291.200 294.667,291.467 294.400,292.000 294.400 C 292.533 294.400,292.800 294.133,292.800 293.600 C 292.800 293.067,293.067 292.800,293.600 292.800 C 294.133 292.800,294.400 292.533,294.400 292.000 C 294.400 291.467,294.667 291.200,295.200 291.200 C 295.733 291.200,296.000 290.933,296.000 290.400 C 296.000 289.935,296.267 289.600,296.637 289.600 C 296.988 289.600,297.369 289.240,297.484 288.800 C 297.599 288.360,297.865 288.000,298.075 288.000 C 298.602 288.000,305.200 281.359,305.200 280.829 C 305.200 280.593,305.560 280.400,306.000 280.400 C 306.533 280.400,306.800 280.133,306.800 279.600 C 306.800 279.067,307.067 278.800,307.600 278.800 C 308.133 278.800,308.400 278.533,308.400 278.000 C 308.400 277.467,308.667 277.200,309.200 277.200 C 309.717 277.200,310.000 276.933,310.000 276.447 C 310.000 276.030,310.357 275.600,310.800 275.484 C 311.240 275.369,311.600 274.988,311.600 274.637 C 311.600 274.267,311.935 274.000,312.400 274.000 C 312.933 274.000,313.200 273.733,313.200 273.200 C 313.200 272.667,313.467 272.400,314.000 272.400 C 314.440 272.400,314.800 272.216,314.800 271.990 C 314.800 271.484,319.968 266.400,320.482 266.400 C 320.686 266.400,321.448 267.030,322.174 267.800 C 322.900 268.570,323.677 269.200,323.901 269.200 C 324.124 269.200,324.401 269.560,324.516 270.000 C 324.640 270.474,325.062 270.800,325.550 270.800 C 326.133 270.800,326.305 270.983,326.135 271.424 C 325.976 271.841,326.179 272.122,326.748 272.271 C 327.217 272.393,327.600 272.759,327.600 273.084 C 327.600 273.409,327.960 273.769,328.400 273.884 C 328.840 273.999,329.200 274.262,329.200 274.468 C 329.200 274.969,340.612 286.400,341.113 286.400 C 341.330 286.400,341.601 286.760,341.716 287.200 C 341.831 287.640,342.191 288.000,342.516 288.000 C 342.841 288.000,343.201 288.360,343.316 288.800 C 343.431 289.240,343.791 289.600,344.116 289.600 C 344.441 289.600,344.807 289.983,344.929 290.452 C 345.078 291.021,345.359 291.224,345.776 291.065 C 346.174 290.912,346.400 291.047,346.400 291.436 C 346.400 292.087,357.692 303.600,358.330 303.600 C 358.537 303.600,358.801 303.960,358.916 304.400 C 359.031 304.840,359.391 305.200,359.716 305.200 C 360.041 305.200,360.401 305.560,360.516 306.000 C 360.631 306.440,361.012 306.800,361.363 306.800 C 361.713 306.800,362.000 307.087,362.000 307.437 C 362.000 307.788,362.360 308.169,362.800 308.284 C 363.240 308.399,363.600 308.662,363.600 308.868 C 363.600 309.351,375.057 320.800,375.540 320.800 C 375.742 320.800,376.001 321.160,376.116 321.600 C 376.231 322.040,376.591 322.400,376.916 322.400 C 377.241 322.400,377.601 322.760,377.716 323.200 C 377.831 323.640,378.191 324.000,378.516 324.000 C 378.841 324.000,379.201 324.360,379.316 324.800 C 379.441 325.277,379.862 325.600,380.359 325.600 C 380.818 325.600,381.418 325.960,381.693 326.400 C 382.098 327.050,382.626 327.200,384.496 327.200 C 386.533 327.200,386.800 327.107,386.800 326.400 C 386.800 325.867,387.067 325.600,387.600 325.600 C 388.333 325.600,388.400 325.333,388.400 322.433 C 388.400 318.970,388.182 318.000,387.404 318.000 C 387.123 318.000,386.799 317.640,386.684 317.200 C 386.569 316.760,386.209 316.400,385.884 316.400 C 385.559 316.400,385.199 316.040,385.084 315.600 C 384.969 315.160,384.609 314.800,384.284 314.800 C 383.959 314.800,383.599 314.440,383.484 314.000 C 383.369 313.560,382.988 313.200,382.637 313.200 C 382.287 313.200,382.000 312.942,382.000 312.627 C 382.000 312.312,381.640 311.940,381.200 311.800 C 380.760 311.660,380.400 311.309,380.400 311.020 C 380.400 310.730,380.040 310.399,379.600 310.284 C 379.160 310.169,378.800 309.788,378.800 309.437 C 378.800 309.067,378.465 308.800,378.000 308.800 C 377.467 308.800,377.200 308.533,377.200 308.000 C 377.200 307.467,376.933 307.200,376.400 307.200 C 375.867 307.200,375.600 306.933,375.600 306.400 C 375.600 305.867,375.333 305.600,374.800 305.600 C 374.267 305.600,374.000 305.333,374.000 304.800 C 374.000 304.360,373.742 304.000,373.427 304.000 C 373.112 304.000,372.740 303.640,372.600 303.200 C 372.460 302.760,372.109 302.400,371.820 302.400 C 371.530 302.400,371.199 302.040,371.084 301.600 C 370.969 301.160,370.609 300.800,370.284 300.800 C 369.959 300.800,369.599 300.440,369.484 300.000 C 369.369 299.560,369.009 299.200,368.684 299.200 C 368.359 299.200,367.999 298.840,367.884 298.400 C 367.769 297.960,367.409 297.600,367.084 297.600 C 366.759 297.600,366.399 297.240,366.284 296.800 C 366.169 296.360,365.788 296.000,365.437 296.000 C 365.087 296.000,364.800 295.742,364.800 295.427 C 364.800 295.112,364.440 294.740,364.000 294.600 C 363.560 294.460,363.200 294.088,363.200 293.773 C 363.200 293.458,362.840 293.200,362.400 293.200 C 361.867 293.200,361.600 292.933,361.600 292.400 C 361.600 291.867,361.333 291.600,360.800 291.600 C 360.267 291.600,360.000 291.333,360.000 290.800 C 360.000 290.267,359.733 290.000,359.200 290.000 C 358.667 290.000,358.400 289.733,358.400 289.200 C 358.400 288.667,358.133 288.400,357.600 288.400 C 357.067 288.400,356.800 288.133,356.800 287.600 C 356.800 287.160,356.542 286.800,356.227 286.800 C 355.912 286.800,355.540 286.440,355.400 286.000 C 355.260 285.560,354.888 285.200,354.573 285.200 C 354.258 285.200,354.000 284.913,354.000 284.563 C 354.000 284.212,353.640 283.831,353.200 283.716 C 352.760 283.601,352.400 283.241,352.400 282.916 C 352.400 282.591,352.040 282.231,351.600 282.116 C 351.160 282.001,350.800 281.641,350.800 281.316 C 350.800 280.991,350.440 280.631,350.000 280.516 C 349.560 280.401,349.200 280.070,349.200 279.780 C 349.200 279.491,348.840 279.140,348.400 279.000 C 347.960 278.860,347.600 278.509,347.600 278.220 C 347.600 277.930,347.240 277.599,346.800 277.484 C 346.360 277.369,346.000 276.988,346.000 276.637 C 346.000 276.267,345.665 276.000,345.200 276.000 C 344.667 276.000,344.400 275.733,344.400 275.200 C 344.400 274.667,344.133 274.400,343.600 274.400 C 343.067 274.400,342.800 274.133,342.800 273.600 C 342.800 273.067,342.533 272.800,342.000 272.800 C 341.483 272.800,341.200 272.533,341.200 272.047 C 341.200 271.630,340.843 271.200,340.400 271.084 C 339.960 270.969,339.600 270.588,339.600 270.237 C 339.600 269.887,339.342 269.600,339.027 269.600 C 338.712 269.600,338.340 269.240,338.200 268.800 C 338.060 268.360,337.709 268.000,337.420 268.000 C 337.130 268.000,336.799 267.640,336.684 267.200 C 336.569 266.760,336.209 266.400,335.884 266.400 C 335.559 266.400,335.199 266.040,335.084 265.600 C 334.969 265.160,334.609 264.800,334.284 264.800 C 333.959 264.800,333.599 264.440,333.484 264.000 C 333.369 263.560,332.988 263.200,332.637 263.200 C 332.287 263.200,332.000 262.942,332.000 262.627 C 332.000 262.312,331.640 261.940,331.200 261.800 C 330.760 261.660,330.400 261.309,330.400 261.020 C 330.400 260.730,330.040 260.399,329.600 260.284 C 329.160 260.169,328.800 259.788,328.800 259.437 C 328.800 259.067,328.465 258.800,328.000 258.800 C 327.467 258.800,327.200 258.533,327.200 258.000 C 327.200 257.467,326.933 257.200,326.400 257.200 C 325.867 257.200,325.600 256.933,325.600 256.400 C 325.600 255.867,325.333 255.600,324.800 255.600 C 324.267 255.600,324.000 255.333,324.000 254.800 C 324.000 254.360,323.742 254.000,323.427 254.000 C 323.112 254.000,322.740 253.640,322.600 253.200 C 322.460 252.760,322.109 252.400,321.820 252.400 C 321.530 252.400,321.199 252.040,321.084 251.600 C 320.969 251.160,320.609 250.800,320.284 250.800 C 319.959 250.800,319.599 250.440,319.484 250.000 C 319.369 249.560,319.009 249.200,318.684 249.200 C 318.359 249.200,317.999 248.840,317.884 248.400 C 317.769 247.960,317.409 247.600,317.084 247.600 C 316.759 247.600,316.399 247.240,316.284 246.800 C 316.169 246.360,315.788 246.000,315.437 246.000 C 315.087 246.000,314.800 245.742,314.800 245.427 C 314.800 245.112,314.440 244.740,314.000 244.600 C 313.560 244.460,313.200 244.088,313.200 243.773 C 313.200 243.458,312.840 243.200,312.400 243.200 C 311.867 243.200,311.600 242.933,311.600 242.400 C 311.600 241.867,311.333 241.600,310.800 241.600 C 310.267 241.600,310.000 241.333,310.000 240.800 C 310.000 240.267,309.733 240.000,309.200 240.000 C 308.667 240.000,308.400 239.733,308.400 239.200 C 308.400 238.667,308.133 238.400,307.600 238.400 C 307.067 238.400,306.800 238.133,306.800 237.600 C 306.800 237.067,306.533 236.800,306.000 236.800 C 305.560 236.800,305.200 236.549,305.200 236.243 C 305.200 235.450,304.293 235.200,301.416 235.200 C 299.666 235.200,298.746 235.017,298.400 234.600 C 298.126 234.270,297.766 234.000,297.600 234.000 C 297.434 234.000,297.074 234.270,296.800 234.600 M105.084 242.400 C 105.199 242.840,105.559 243.200,105.884 243.200 C 106.209 243.200,106.569 243.560,106.684 244.000 C 106.799 244.440,107.159 244.800,107.484 244.800 C 107.809 244.800,108.169 245.160,108.284 245.600 C 108.399 246.040,108.759 246.400,109.084 246.400 C 109.409 246.400,109.765 246.743,109.874 247.163 C 109.984 247.583,110.417 248.016,110.837 248.126 C 111.257 248.235,111.600 248.612,111.600 248.963 C 111.600 249.313,111.777 249.600,111.993 249.600 C 112.505 249.600,117.600 254.695,117.600 255.207 C 117.600 255.423,117.887 255.600,118.237 255.600 C 118.588 255.600,118.969 255.960,119.084 256.400 C 119.199 256.840,119.559 257.200,119.884 257.200 C 120.209 257.200,120.569 257.560,120.684 258.000 C 120.799 258.440,121.159 258.800,121.484 258.800 C 121.809 258.800,122.169 259.160,122.284 259.600 C 122.399 260.040,122.759 260.400,123.084 260.400 C 123.409 260.400,123.769 260.760,123.884 261.200 C 123.999 261.640,124.359 262.000,124.684 262.000 C 125.009 262.000,125.365 262.343,125.474 262.763 C 125.584 263.183,126.017 263.616,126.437 263.726 C 126.857 263.835,127.200 264.212,127.200 264.563 C 127.200 264.913,127.372 265.200,127.583 265.200 C 128.083 265.200,134.800 271.917,134.800 272.417 C 134.800 272.628,135.087 272.800,135.437 272.800 C 135.788 272.800,136.169 273.160,136.284 273.600 C 136.399 274.040,136.759 274.400,137.084 274.400 C 137.409 274.400,137.769 274.760,137.884 275.200 C 137.999 275.640,138.359 276.000,138.684 276.000 C 139.009 276.000,139.369 276.360,139.484 276.800 C 139.599 277.240,139.959 277.600,140.284 277.600 C 140.609 277.600,140.969 277.960,141.084 278.400 C 141.199 278.840,141.559 279.200,141.884 279.200 C 142.209 279.200,142.569 279.560,142.684 280.000 C 142.799 280.440,143.159 280.800,143.484 280.800 C 143.809 280.800,144.169 281.160,144.284 281.600 C 144.399 282.040,144.649 282.400,144.839 282.400 C 145.291 282.400,150.400 287.509,150.400 287.961 C 150.400 288.151,150.760 288.401,151.200 288.516 C 151.640 288.631,152.000 289.012,152.000 289.363 C 152.000 289.713,152.287 290.000,152.637 290.000 C 152.988 290.000,153.365 290.343,153.474 290.763 C 153.584 291.183,154.017 291.616,154.437 291.726 C 154.857 291.835,155.200 292.212,155.200 292.563 C 155.200 292.913,155.487 293.200,155.837 293.200 C 156.188 293.200,156.565 293.543,156.674 293.963 C 156.784 294.383,157.217 294.816,157.637 294.926 C 158.298 295.098,158.400 295.508,158.400 297.977 L 158.400 300.828 150.778 308.443 C 144.751 314.464,142.889 316.099,141.878 316.257 C 139.949 316.557,83.775 260.389,83.842 258.227 C 83.879 257.032,84.741 256.031,91.579 249.241 L 99.275 241.600 102.075 241.600 C 104.538 241.600,104.900 241.696,105.084 242.400 M301.265 242.700 C 303.663 244.617,315.938 257.318,316.140 258.091 C 316.250 258.512,315.960 259.243,315.467 259.787 C 314.990 260.312,314.152 261.295,313.604 261.971 C 313.057 262.647,312.382 263.200,312.104 263.200 C 311.827 263.200,311.600 263.365,311.600 263.568 C 311.600 264.065,293.689 282.000,293.193 282.000 C 292.977 282.000,292.800 282.258,292.800 282.573 C 292.800 282.888,292.440 283.260,292.000 283.400 C 291.560 283.540,291.200 283.797,291.200 283.971 C 291.200 284.422,284.473 291.200,284.025 291.200 C 283.821 291.200,283.540 291.560,283.400 292.000 C 283.260 292.440,282.900 292.800,282.600 292.800 C 282.300 292.800,281.940 293.160,281.800 293.600 C 281.660 294.040,281.309 294.400,281.020 294.400 C 280.730 294.400,280.399 294.760,280.284 295.200 C 280.169 295.640,279.809 296.000,279.484 296.000 C 279.159 296.000,278.799 296.360,278.684 296.800 C 278.569 297.240,278.188 297.600,277.837 297.600 C 277.487 297.600,277.200 297.858,277.200 298.173 C 277.200 298.488,276.840 298.860,276.400 299.000 C 275.960 299.140,275.600 299.398,275.600 299.575 C 275.600 299.978,261.447 314.298,259.903 315.457 C 258.190 316.743,257.928 316.557,249.455 308.045 L 241.600 300.154 241.600 298.089 L 241.600 296.023 268.812 268.812 L 296.023 241.600 297.957 241.600 C 299.466 241.600,300.192 241.841,301.265 242.700 M179.000 267.200 C 178.860 267.640,178.471 268.000,178.136 268.000 C 177.800 268.000,177.431 268.360,177.316 268.800 C 177.201 269.240,176.870 269.600,176.580 269.600 C 176.291 269.600,175.940 269.960,175.800 270.400 C 175.660 270.840,175.288 271.200,174.973 271.200 C 174.658 271.200,174.400 271.560,174.400 272.000 C 174.400 272.533,174.133 272.800,173.600 272.800 C 173.067 272.800,172.800 273.067,172.800 273.600 C 172.800 274.133,172.533 274.400,172.000 274.400 C 171.560 274.400,171.200 274.658,171.200 274.973 C 171.200 275.288,170.840 275.660,170.400 275.800 C 169.960 275.940,169.600 276.291,169.600 276.580 C 169.600 276.870,169.240 277.201,168.800 277.316 C 168.360 277.431,168.000 277.812,168.000 278.163 C 168.000 278.533,167.665 278.800,167.200 278.800 C 166.667 278.800,166.400 279.067,166.400 279.600 C 166.400 280.133,166.133 280.400,165.600 280.400 C 165.083 280.400,164.800 280.667,164.800 281.153 C 164.800 281.570,164.443 282.000,164.000 282.116 C 162.538 282.498,162.849 287.071,164.439 288.572 C 166.078 290.119,169.477 290.523,170.685 289.315 C 171.112 288.888,171.762 288.423,172.131 288.282 C 172.499 288.141,172.800 287.749,172.800 287.413 C 172.800 287.076,173.058 286.800,173.373 286.800 C 173.688 286.800,174.060 286.440,174.200 286.000 C 174.340 285.560,174.712 285.200,175.027 285.200 C 175.342 285.200,175.600 284.840,175.600 284.400 C 175.600 283.867,175.867 283.600,176.400 283.600 C 176.933 283.600,177.200 283.333,177.200 282.800 C 177.200 282.267,177.467 282.000,178.000 282.000 C 178.533 282.000,178.800 281.733,178.800 281.200 C 178.800 280.667,179.067 280.400,179.600 280.400 C 180.133 280.400,180.400 280.133,180.400 279.600 C 180.400 279.067,180.667 278.800,181.200 278.800 C 181.733 278.800,182.000 278.533,182.000 278.000 C 182.000 277.467,182.267 277.200,182.800 277.200 C 183.333 277.200,183.600 276.933,183.600 276.400 C 183.600 275.867,183.867 275.600,184.400 275.600 C 184.918 275.600,185.200 275.333,185.200 274.843 C 185.200 274.426,185.453 273.988,185.762 273.870 C 186.996 273.396,187.006 269.600,185.773 269.600 C 185.458 269.600,185.200 269.240,185.200 268.800 C 185.200 268.283,184.933 268.000,184.447 268.000 C 184.030 268.000,183.600 267.643,183.484 267.200 C 183.310 266.534,182.938 266.400,181.264 266.400 C 179.605 266.400,179.210 266.540,179.000 267.200 M194.600 273.600 C 194.460 274.040,194.108 274.400,193.818 274.400 C 193.527 274.400,193.167 275.051,193.017 275.848 C 192.666 277.721,193.120 280.400,193.789 280.400 C 194.074 280.400,194.401 280.760,194.516 281.200 C 194.631 281.640,194.991 282.000,195.316 282.000 C 195.641 282.000,196.001 282.360,196.116 282.800 C 196.231 283.240,196.612 283.600,196.963 283.600 C 197.313 283.600,197.600 283.887,197.600 284.237 C 197.600 284.588,197.943 284.965,198.363 285.074 C 198.783 285.184,199.216 285.617,199.326 286.037 C 199.474 286.603,199.884 286.800,200.916 286.800 C 201.970 286.800,202.357 286.994,202.516 287.600 C 202.685 288.248,203.062 288.400,204.501 288.400 C 205.715 288.400,206.576 288.658,207.218 289.215 C 208.128 290.005,208.564 290.027,221.209 289.915 L 234.261 289.800 235.530 288.601 C 237.122 287.098,237.482 282.503,236.037 282.126 C 235.617 282.016,235.184 281.583,235.074 281.163 C 234.884 280.433,234.337 280.400,222.425 280.400 C 211.829 280.400,209.941 280.312,209.749 279.811 C 209.624 279.487,208.874 279.100,208.081 278.951 C 207.287 278.802,206.281 278.348,205.844 277.940 C 205.407 277.533,204.813 277.200,204.525 277.200 C 204.236 277.200,204.000 276.942,204.000 276.627 C 204.000 276.312,203.640 275.940,203.200 275.800 C 202.760 275.660,202.400 275.288,202.400 274.973 C 202.400 274.658,202.040 274.400,201.600 274.400 C 201.067 274.400,200.800 274.133,200.800 273.600 C 200.800 272.872,200.533 272.800,197.827 272.800 C 195.205 272.800,194.824 272.895,194.600 273.600 " stroke="none" fill="#23333b" fill-rule="evenodd"></path><path id="path4" d="M152.798 109.605 C 151.949 111.190,152.453 132.956,153.362 133.959 L 154.124 134.800 193.662 134.800 C 232.762 134.800,233.209 134.791,234.006 133.994 C 234.783 133.217,234.808 132.758,234.706 121.094 L 234.600 109.000 193.915 108.898 C 153.447 108.797,153.228 108.801,152.798 109.605 M233.920 109.680 C 234.270 110.030,234.400 113.137,234.400 121.158 L 234.400 132.156 233.325 133.278 L 232.250 134.400 193.847 134.400 L 155.444 134.400 154.322 133.325 L 153.200 132.250 153.200 120.958 C 153.200 112.299,153.317 109.620,153.700 109.465 C 154.883 108.988,233.438 109.198,233.920 109.680 M91.975 249.435 C 85.991 255.392,84.000 257.615,84.000 258.342 C 84.000 259.088,88.832 264.142,105.000 280.308 C 116.550 291.857,126.000 301.369,126.000 301.446 C 126.000 301.524,127.184 302.715,128.630 304.094 C 130.077 305.472,133.383 308.715,135.976 311.300 C 142.138 317.443,140.917 317.717,150.565 308.025 L 158.503 300.051 158.327 297.921 L 158.150 295.792 131.183 268.821 L 104.215 241.850 102.082 241.674 L 99.949 241.497 91.975 249.435 M130.486 269.500 C 156.644 295.643,157.601 296.652,157.601 298.085 C 157.600 299.481,157.116 300.057,149.587 307.633 L 141.574 315.695 131.611 305.748 C 126.132 300.276,113.251 287.393,102.987 277.119 L 84.326 258.437 92.381 250.419 C 99.919 242.915,100.531 242.400,101.903 242.400 C 103.312 242.400,104.458 243.487,130.486 269.500 " stroke="none" fill="#2c4c54" fill-rule="evenodd"></path><path id="path5" d="M234.976 121.200 C 234.976 127.470,235.032 130.035,235.099 126.900 C 235.167 123.765,235.167 118.635,235.099 115.500 C 235.032 112.365,234.976 114.930,234.976 121.200 M174.530 135.100 C 185.272 135.159,202.732 135.159,213.330 135.100 C 223.929 135.041,215.140 134.992,193.800 134.992 C 172.460 134.992,163.789 135.041,174.530 135.100 M91.596 249.225 C 87.372 253.419,83.986 256.919,84.071 257.004 C 84.156 257.089,87.739 253.658,92.033 249.379 C 96.328 245.101,99.714 241.600,99.558 241.600 C 99.402 241.600,95.819 245.031,91.596 249.225 M268.812 268.812 L 241.600 296.023 241.600 298.089 L 241.600 300.154 249.455 308.045 C 257.928 316.557,258.190 316.743,259.903 315.457 C 261.447 314.298,275.600 299.978,275.600 299.575 C 275.600 299.398,275.960 299.140,276.400 299.000 C 276.840 298.860,277.200 298.488,277.200 298.173 C 277.200 297.858,277.487 297.600,277.837 297.600 C 278.188 297.600,278.569 297.240,278.684 296.800 C 278.799 296.360,279.159 296.000,279.484 296.000 C 279.809 296.000,280.169 295.640,280.284 295.200 C 280.399 294.760,280.730 294.400,281.020 294.400 C 281.309 294.400,281.660 294.040,281.800 293.600 C 281.940 293.160,282.300 292.800,282.600 292.800 C 282.900 292.800,283.260 292.440,283.400 292.000 C 283.540 291.560,283.821 291.200,284.025 291.200 C 284.473 291.200,291.200 284.422,291.200 283.971 C 291.200 283.797,291.560 283.540,292.000 283.400 C 292.440 283.260,292.800 282.888,292.800 282.573 C 292.800 282.258,292.977 282.000,293.193 282.000 C 293.689 282.000,311.600 264.065,311.600 263.568 C 311.600 263.365,311.827 263.200,312.104 263.200 C 312.382 263.200,313.057 262.647,313.604 261.971 C 314.152 261.295,314.990 260.312,315.467 259.787 C 316.778 258.341,316.474 257.888,309.293 250.575 C 300.749 241.873,300.404 241.600,297.957 241.600 L 296.023 241.600 268.812 268.812 M307.839 250.449 L 315.776 258.422 287.225 286.975 C 271.523 302.678,258.478 315.450,258.238 315.355 C 256.255 314.575,242.378 299.671,242.325 298.264 C 242.269 296.753,242.594 296.408,269.234 269.735 C 284.065 254.885,296.534 242.604,296.942 242.443 C 298.863 241.687,299.806 242.380,307.839 250.449 M83.737 258.495 C 83.794 259.494,125.411 301.922,125.877 301.456 C 125.952 301.381,116.579 291.886,105.047 280.355 C 91.618 266.927,84.007 259.033,83.877 258.396 C 83.687 257.466,83.677 257.472,83.737 258.495 M150.411 308.060 C 146.127 312.427,142.755 316.000,142.918 316.000 C 143.380 316.000,158.400 300.879,158.400 300.414 C 158.400 299.868,159.187 299.115,150.411 308.060 M134.995 310.713 C 139.424 315.215,140.799 316.389,141.595 316.346 L 142.600 316.291 141.600 316.105 C 141.008 315.994,138.782 314.097,136.149 311.459 C 133.702 309.007,131.182 306.556,130.549 306.013 C 129.917 305.470,131.918 307.585,134.995 310.713 " stroke="none" fill="#2c4454" fill-rule="evenodd"></path></g></svg>