<svg id="svg" xmlns="http://www.w3.org/2000/svg" xmlns:xlink="http://www.w3.org/1999/xlink" width="400" height="400" viewBox="0, 0, 400,400" version="1.1"><g id="svgg"><path id="path0" d="M93.804 53.338 C 92.666 55.074,91.762 55.200,80.407 55.200 C 63.266 55.200,59.480 56.774,57.410 64.760 C 56.606 67.866,56.486 109.526,57.280 110.320 C 57.845 110.885,357.029 111.023,357.918 110.459 C 358.336 110.194,358.414 105.638,358.318 87.165 L 358.200 64.200 357.205 62.252 C 354.175 56.318,351.728 55.520,335.671 55.228 L 323.141 55.000 322.071 53.696 C 321.070 52.478,320.837 52.393,318.508 52.396 C 315.403 52.401,315.655 51.338,315.476 65.200 C 315.349 75.072,315.253 76.396,314.540 78.115 C 310.166 88.650,295.720 88.589,291.746 78.019 C 290.837 75.601,290.800 75.081,290.800 64.725 C 290.800 58.061,290.642 53.652,290.386 53.174 C 289.726 51.941,285.527 52.058,284.521 53.336 C 283.031 55.231,283.511 55.200,255.445 55.200 C 227.400 55.200,227.290 55.193,226.453 53.356 C 225.854 52.042,221.096 51.899,220.414 53.174 C 220.158 53.652,220.000 58.050,220.000 64.689 C 220.000 79.466,219.536 80.742,212.605 85.008 C 208.927 87.271,201.749 85.692,198.722 81.954 C 195.718 78.244,195.600 77.617,195.600 65.375 C 195.600 52.161,195.660 52.400,192.339 52.400 C 190.030 52.400,189.783 52.490,188.773 53.700 L 187.688 55.000 160.015 55.000 L 132.343 55.000 131.271 53.696 C 130.296 52.509,130.002 52.393,127.980 52.396 C 124.675 52.402,124.800 51.945,124.800 64.013 C 124.800 73.604,124.719 74.923,123.987 77.254 C 120.619 87.986,106.516 89.112,101.295 79.065 L 100.222 77.000 100.108 65.600 C 99.964 51.289,100.226 52.400,97.002 52.400 C 94.733 52.400,94.344 52.514,93.804 53.338 M57.429 175.829 C 56.752 176.505,56.432 214.525,57.100 214.938 C 57.265 215.040,57.352 206.436,57.293 195.817 C 57.203 179.764,57.278 176.433,57.739 176.051 C 58.149 175.711,67.293 175.618,92.908 175.696 C 111.947 175.753,127.440 175.665,127.338 175.500 C 126.922 174.827,58.106 175.151,57.429 175.829 M134.480 175.680 C 134.216 175.944,134.013 176.439,134.028 176.780 C 134.048 177.208,134.153 177.153,134.368 176.600 C 134.676 175.811,135.147 175.797,169.440 175.597 L 204.200 175.393 169.580 175.297 C 143.078 175.223,134.847 175.313,134.480 175.680 M223.600 175.494 C 256.588 175.769,281.106 175.772,280.938 175.500 C 280.836 175.335,265.058 175.242,245.876 175.294 C 226.694 175.346,216.670 175.436,223.600 175.494 M322.760 175.597 C 357.253 175.797,357.724 175.811,358.032 176.600 C 358.247 177.153,358.352 177.208,358.372 176.780 C 358.444 175.185,358.718 175.196,322.620 175.297 L 287.800 175.393 322.760 175.597 M127.598 195.600 L 127.400 215.000 92.600 215.203 L 57.800 215.407 92.451 215.503 C 121.319 215.584,127.178 215.509,127.555 215.054 C 127.882 214.661,127.978 209.168,127.902 195.354 L 127.796 176.200 127.598 195.600 M204.585 195.600 C 204.585 206.270,204.637 210.635,204.700 205.300 C 204.763 199.965,204.763 191.235,204.700 185.900 C 204.637 180.565,204.585 184.930,204.585 195.600 M281.385 195.600 C 281.385 206.270,281.437 210.635,281.500 205.300 C 281.563 199.965,281.563 191.235,281.500 185.900 C 281.437 180.565,281.385 184.930,281.385 195.600 M210.934 214.400 L 211.000 215.400 245.900 215.403 L 280.800 215.407 246.028 215.301 L 211.255 215.196 211.062 214.298 C 210.893 213.510,210.877 213.523,210.934 214.400 M357.921 214.300 L 357.675 215.200 322.867 215.200 C 290.061 215.200,288.047 215.160,287.852 214.500 C 287.692 213.956,287.664 213.978,287.728 214.600 C 287.810 215.392,288.140 215.401,322.605 215.495 C 357.466 215.590,358.612 215.547,358.323 214.152 C 358.186 213.488,358.139 213.506,357.921 214.300 M152.130 215.500 C 161.772 215.560,177.432 215.560,186.930 215.500 C 196.429 215.440,188.540 215.391,169.400 215.391 C 150.260 215.391,142.489 215.440,152.130 215.500 " stroke="none" fill="#f75252" fill-rule="evenodd"></path><path id="path1" d="M57.647 176.144 C 57.318 176.540,57.221 181.990,57.296 195.846 L 57.400 215.000 92.400 215.000 L 127.400 215.000 127.400 195.400 L 127.400 175.800 92.751 175.698 C 63.812 175.612,58.027 175.686,57.647 176.144 M134.390 176.626 C 133.961 177.754,133.833 211.866,134.250 213.950 L 134.500 215.200 169.450 215.200 L 204.400 215.200 204.400 195.400 L 204.400 175.600 169.590 175.600 L 134.780 175.600 134.390 176.626 M211.050 176.848 C 210.724 178.480,210.724 212.318,211.050 213.950 L 211.300 215.200 246.254 215.200 L 281.208 215.200 281.104 195.500 L 281.000 175.800 246.150 175.698 L 211.301 175.596 211.050 176.848 M287.850 176.850 C 287.530 178.452,287.532 213.104,287.852 214.300 L 288.093 215.200 322.857 215.200 L 357.620 215.200 358.010 214.174 C 358.242 213.563,358.400 205.964,358.400 195.400 C 358.400 184.836,358.242 177.237,358.010 176.626 L 357.620 175.600 322.860 175.600 L 288.100 175.600 287.850 176.850 M312.182 296.200 C 312.182 305.000,312.235 308.543,312.300 304.073 C 312.364 299.604,312.364 292.404,312.299 288.073 C 312.235 283.743,312.182 287.400,312.182 296.200 " stroke="none" fill="#f6d043" fill-rule="evenodd"></path><path id="path2" d="M109.083 26.007 C 106.274 28.216,106.400 26.978,106.400 52.287 L 106.400 75.080 107.554 76.672 C 110.435 80.650,114.815 80.389,117.463 76.083 L 118.375 74.600 118.388 52.299 C 118.401 27.583,118.492 28.479,115.745 26.119 C 114.296 24.874,110.602 24.812,109.083 26.007 M203.673 26.821 C 201.502 28.993,201.530 28.605,201.677 54.010 C 201.800 75.345,201.803 75.424,202.676 76.534 C 205.022 79.515,207.309 80.201,210.159 78.778 C 213.743 76.987,213.600 78.106,213.597 51.888 L 213.595 29.000 211.966 27.100 C 209.628 24.372,206.237 24.257,203.673 26.821 M298.834 27.100 L 297.205 29.000 297.203 52.153 C 297.200 74.799,297.218 75.335,298.020 76.633 C 300.671 80.922,306.346 80.494,308.556 75.837 C 309.693 73.441,309.514 30.782,308.357 28.594 C 306.176 24.467,301.693 23.764,298.834 27.100 M308.000 259.377 C 305.690 259.642,303.440 260.049,303.000 260.283 C 302.560 260.516,301.446 260.832,300.523 260.985 C 299.601 261.137,298.168 261.608,297.339 262.031 C 296.509 262.454,295.637 262.800,295.401 262.800 C 294.915 262.800,288.892 265.861,288.057 266.532 C 287.759 266.772,287.200 267.156,286.815 267.384 C 284.275 268.892,282.377 270.436,279.057 273.695 C 274.519 278.151,272.222 281.255,269.306 286.871 C 266.301 292.657,264.595 298.054,264.016 303.600 C 263.775 305.910,263.512 308.430,263.431 309.200 C 263.213 311.278,264.363 321.936,264.959 323.364 C 265.242 324.044,265.599 325.267,265.752 326.083 C 266.185 328.394,269.247 335.179,271.070 337.865 C 271.581 338.619,272.000 339.317,272.000 339.417 C 272.000 341.259,283.798 352.830,287.600 354.717 C 288.150 354.989,289.410 355.736,290.400 356.375 C 291.390 357.014,292.470 357.552,292.800 357.571 C 293.130 357.590,293.940 357.963,294.600 358.400 C 295.260 358.837,296.070 359.197,296.400 359.200 C 296.730 359.203,297.525 359.479,298.167 359.813 C 298.809 360.148,300.429 360.671,301.767 360.976 C 303.105 361.281,305.010 361.742,306.000 362.000 C 308.242 362.584,321.901 362.612,324.400 362.037 C 325.390 361.809,327.385 361.353,328.833 361.023 C 330.281 360.692,331.991 360.148,332.633 359.813 C 333.275 359.479,334.034 359.204,334.321 359.202 C 334.607 359.201,335.507 358.849,336.321 358.420 C 337.134 357.991,338.070 357.545,338.400 357.428 C 338.730 357.312,339.720 356.767,340.600 356.218 C 341.480 355.669,342.830 354.868,343.600 354.439 C 348.266 351.840,356.349 343.685,359.499 338.400 C 362.322 333.662,364.537 328.513,365.413 324.648 C 365.706 323.354,366.183 321.734,366.473 321.048 C 366.855 320.143,367.000 317.381,367.000 311.000 C 367.000 302.013,367.017 302.159,365.200 295.800 C 363.584 290.149,360.167 283.659,356.062 278.448 C 350.829 271.804,338.112 262.400,334.360 262.400 C 334.040 262.400,333.423 262.156,332.989 261.857 C 332.555 261.558,331.480 261.188,330.600 261.035 C 329.720 260.882,328.280 260.505,327.400 260.198 C 323.825 258.950,314.994 258.576,308.000 259.377 M317.678 277.875 L 318.800 278.950 318.800 298.433 L 318.800 317.917 317.386 319.159 L 315.972 320.400 300.000 320.400 L 284.028 320.400 282.614 319.159 C 280.950 317.697,280.849 316.665,282.209 315.000 L 283.189 313.800 297.575 313.681 L 311.961 313.562 312.080 296.146 L 312.200 278.730 313.322 277.765 C 314.794 276.500,316.282 276.537,317.678 277.875 " stroke="none" fill="#fafafa" fill-rule="evenodd"></path><path id="path3" d="M110.548 24.772 C 109.175 25.109,107.863 26.182,106.736 27.892 C 106.050 28.933,106.005 30.407,106.003 52.222 L 106.000 75.445 106.938 76.716 C 110.175 81.104,115.085 81.000,117.863 76.483 L 118.775 75.000 118.788 52.128 L 118.800 29.255 117.912 27.918 C 116.069 25.142,113.504 24.046,110.548 24.772 M206.000 24.687 C 204.581 24.940,202.062 27.515,201.597 29.186 C 201.070 31.084,201.067 73.343,201.594 75.180 C 203.001 80.085,208.521 81.416,212.200 77.737 L 214.000 75.937 214.000 52.310 L 214.000 28.682 212.585 26.956 C 210.808 24.787,208.979 24.157,206.000 24.687 M300.922 24.827 C 300.201 25.044,299.024 25.968,298.222 26.947 L 296.800 28.682 296.800 52.280 C 296.800 75.303,296.819 75.900,297.600 76.800 C 298.040 77.307,298.401 77.830,298.403 77.961 C 298.404 78.093,299.000 78.605,299.727 79.100 C 302.951 81.294,307.760 79.587,309.227 75.729 C 310.125 73.367,309.678 29.693,308.740 28.079 C 307.039 25.154,304.014 23.896,300.922 24.827 M115.908 26.300 C 118.488 28.633,118.400 27.723,118.400 52.196 C 118.400 73.254,118.360 74.510,117.640 75.916 C 115.401 80.288,110.442 80.660,107.554 76.672 L 106.400 75.080 106.403 52.040 L 106.405 29.000 108.034 27.100 C 110.128 24.657,113.691 24.295,115.908 26.300 M211.300 26.193 C 211.905 26.726,212.400 27.328,212.400 27.532 C 212.400 27.735,212.670 28.126,213.000 28.400 C 214.054 29.275,213.885 74.271,212.820 76.258 C 210.587 80.424,205.839 80.553,202.676 76.534 C 201.793 75.411,201.036 35.394,201.799 30.127 C 202.408 25.916,208.241 23.501,211.300 26.193 M306.591 26.220 C 309.275 28.267,309.200 27.520,309.200 52.217 C 309.200 73.946,309.179 74.554,308.374 76.166 C 306.378 80.162,301.992 80.901,298.973 77.750 L 297.200 75.900 297.203 52.450 L 297.205 29.000 298.834 27.100 C 300.881 24.711,304.129 24.343,306.591 26.220 M309.157 240.413 C 303.078 240.797,292.878 243.137,290.611 244.667 C 290.177 244.960,289.509 245.200,289.127 245.200 C 286.922 245.200,276.745 251.254,270.551 256.251 C 251.341 271.747,241.276 298.472,245.616 322.459 C 246.181 325.585,247.434 330.787,248.009 332.400 C 254.481 350.543,263.702 361.822,280.618 372.284 C 282.235 373.284,288.654 376.339,290.000 376.750 C 290.770 376.984,292.750 377.641,294.400 378.208 C 313.067 384.630,339.612 380.813,354.800 369.524 C 372.545 356.334,381.477 342.421,385.203 322.164 C 386.175 316.881,386.210 302.257,385.257 299.200 C 385.017 298.430,384.560 296.540,384.241 295.000 C 383.495 291.396,382.552 288.132,381.797 286.540 C 381.469 285.846,381.200 285.087,381.200 284.852 C 381.200 284.617,380.860 283.744,380.445 282.912 C 380.030 282.081,379.209 280.410,378.620 279.200 C 377.387 276.666,377.217 276.369,374.847 272.600 C 371.383 267.089,364.900 259.806,360.053 255.979 C 359.092 255.221,358.102 254.420,357.853 254.200 C 348.907 246.301,326.538 239.026,314.400 240.068 C 314.070 240.096,311.711 240.252,309.157 240.413 M322.830 252.954 C 325.596 253.236,328.100 253.615,328.393 253.796 C 328.687 253.977,329.933 254.357,331.163 254.640 C 345.461 257.929,360.627 270.482,367.603 284.800 C 370.243 290.219,370.953 292.072,371.816 295.800 C 372.122 297.120,372.575 298.830,372.824 299.600 C 373.463 301.579,373.764 315.162,373.249 318.800 C 372.152 326.551,369.402 334.207,365.269 341.022 C 359.429 350.650,350.371 358.761,339.893 363.742 C 337.744 364.764,335.768 365.600,335.501 365.600 C 335.234 365.600,334.112 365.940,333.008 366.355 C 323.687 369.863,307.113 369.863,297.792 366.355 C 296.688 365.940,295.566 365.600,295.299 365.600 C 290.172 365.600,272.879 352.264,267.550 344.199 C 265.488 341.079,262.807 336.507,262.787 336.079 C 262.781 335.925,262.332 334.900,261.791 333.800 C 261.250 332.700,260.806 331.525,260.804 331.189 C 260.802 330.853,260.556 330.223,260.257 329.789 C 259.958 329.355,259.588 328.280,259.435 327.400 C 259.282 326.520,258.901 325.080,258.590 324.200 C 256.764 319.045,256.760 303.220,258.584 297.200 C 258.884 296.210,259.243 294.860,259.383 294.200 C 260.024 291.175,263.765 282.945,265.881 279.904 C 266.606 278.861,267.200 277.896,267.200 277.760 C 267.200 277.460,269.888 274.151,272.365 271.400 C 277.084 266.161,285.156 260.160,290.400 257.992 C 290.950 257.765,291.940 257.333,292.600 257.032 C 294.969 255.953,298.229 254.837,299.800 254.568 C 300.680 254.418,301.760 254.105,302.200 253.874 C 304.435 252.698,315.475 252.206,322.830 252.954 M308.600 258.666 C 306.400 258.981,303.430 259.593,302.000 260.025 C 300.570 260.458,299.174 260.809,298.899 260.806 C 298.623 260.803,297.725 261.160,296.904 261.600 C 296.084 262.040,295.116 262.400,294.755 262.400 C 294.394 262.400,293.883 262.658,293.621 262.974 C 293.359 263.290,292.630 263.662,292.000 263.800 C 291.370 263.938,290.641 264.310,290.379 264.626 C 290.117 264.942,289.706 265.200,289.466 265.200 C 287.686 265.200,277.607 273.760,274.338 278.048 C 273.822 278.725,272.995 279.782,272.500 280.397 C 272.005 281.012,271.600 281.655,271.600 281.826 C 271.600 281.997,271.352 282.421,271.049 282.769 C 269.466 284.582,266.584 290.963,264.893 296.400 C 262.930 302.710,262.325 312.487,263.532 318.400 C 264.066 321.015,264.102 318.750,263.597 314.340 C 263.137 310.330,263.952 300.906,265.058 297.452 C 269.436 283.770,277.134 273.131,286.815 267.384 C 287.200 267.156,287.759 266.766,288.057 266.519 C 288.972 265.762,295.755 262.401,296.396 262.387 C 296.728 262.380,297.349 262.110,297.776 261.787 C 298.204 261.464,298.878 261.200,299.275 261.200 C 299.672 261.200,301.033 260.851,302.298 260.424 C 308.064 258.481,323.076 258.492,328.630 260.444 C 329.812 260.860,331.110 261.200,331.514 261.200 C 331.917 261.200,332.596 261.464,333.024 261.787 C 333.451 262.110,334.074 262.380,334.409 262.387 C 339.562 262.495,355.394 275.617,359.580 283.250 C 361.850 287.389,364.000 291.828,364.000 292.376 C 364.000 292.731,364.254 293.385,364.564 293.828 C 364.875 294.271,365.311 295.616,365.534 296.817 C 365.757 298.018,366.162 299.540,366.433 300.200 C 366.737 300.941,367.013 304.536,367.153 309.600 C 367.335 316.160,367.429 317.160,367.625 314.600 C 367.937 310.535,367.290 300.590,366.609 298.960 C 366.324 298.277,365.957 296.927,365.795 295.959 C 365.633 294.992,365.252 293.845,364.950 293.411 C 364.647 292.977,364.400 292.370,364.400 292.063 C 364.400 291.469,361.336 285.144,359.912 282.800 C 356.157 276.616,344.097 265.200,341.320 265.200 C 341.088 265.200,340.683 264.942,340.421 264.626 C 340.159 264.310,339.430 263.938,338.800 263.800 C 338.170 263.662,337.441 263.290,337.179 262.974 C 336.917 262.658,336.406 262.400,336.045 262.400 C 335.684 262.400,334.716 262.040,333.896 261.600 C 333.075 261.160,332.133 260.800,331.803 260.800 C 331.473 260.800,330.167 260.461,328.902 260.047 C 323.496 258.280,315.229 257.717,308.600 258.666 M313.500 277.646 L 312.400 278.467 312.400 294.783 C 312.400 303.758,312.288 311.663,312.150 312.350 L 311.900 313.600 298.850 313.604 C 283.441 313.610,283.083 313.648,281.994 315.410 C 281.076 316.895,281.310 318.061,282.796 319.400 C 283.648 320.168,284.330 320.205,299.813 320.313 L 315.943 320.426 317.371 319.172 L 318.800 317.917 318.800 298.589 L 318.800 279.261 317.764 278.031 C 316.535 276.570,315.114 276.442,313.500 277.646 M317.364 278.431 L 318.400 279.661 318.400 298.424 L 318.400 317.187 317.233 318.494 L 316.066 319.800 300.065 319.800 L 284.064 319.800 283.032 318.830 C 281.810 317.682,281.734 316.570,282.786 315.200 L 283.554 314.200 297.794 314.081 L 312.034 313.962 312.417 312.955 C 312.639 312.372,312.800 304.921,312.801 295.274 L 312.801 278.600 313.901 277.937 C 315.517 276.961,316.211 277.060,317.364 278.431 M366.867 318.965 C 366.807 320.017,366.551 321.070,365.257 325.600 C 362.466 335.367,356.183 344.647,347.789 351.398 C 345.737 353.049,343.928 354.400,343.770 354.400 C 343.612 354.400,342.520 355.039,341.343 355.820 C 340.166 356.601,338.618 357.439,337.902 357.683 C 337.186 357.926,336.245 358.367,335.811 358.663 C 335.377 358.958,334.747 359.201,334.411 359.202 C 334.075 359.204,333.260 359.487,332.600 359.832 C 331.940 360.177,330.680 360.606,329.800 360.785 C 328.920 360.965,327.030 361.425,325.600 361.809 C 321.852 362.814,308.918 362.817,305.200 361.814 C 303.770 361.427,301.880 360.965,301.000 360.785 C 300.120 360.606,298.860 360.177,298.200 359.832 C 297.540 359.487,296.800 359.204,296.555 359.202 C 295.781 359.198,291.072 356.919,289.200 355.642 C 288.210 354.967,287.252 354.411,287.071 354.407 C 286.480 354.394,279.444 348.539,277.600 346.526 C 270.985 339.304,266.609 331.029,264.417 321.600 C 264.100 320.236,264.091 320.230,264.046 321.372 C 263.958 323.624,267.297 332.621,269.697 336.600 C 278.109 350.541,289.798 358.986,305.400 362.394 C 310.572 363.524,324.500 363.153,327.742 361.799 C 328.530 361.469,329.585 361.194,330.087 361.186 C 330.589 361.179,331.720 360.825,332.600 360.400 C 333.480 359.975,334.398 359.621,334.640 359.614 C 335.069 359.600,340.432 356.935,343.163 355.377 C 347.399 352.962,356.373 344.520,358.166 341.264 C 358.367 340.899,358.647 340.510,358.788 340.400 C 359.075 340.176,362.236 334.559,363.290 332.400 C 364.171 330.597,365.128 327.923,365.796 325.400 C 366.087 324.300,366.534 322.832,366.789 322.137 C 367.044 321.442,367.181 320.182,367.094 319.337 C 366.969 318.137,366.920 318.055,366.867 318.965 " stroke="none" fill="#43c2fa" fill-rule="evenodd"></path><path id="path4" d="M55.600 5.000 L 55.600 10.000 51.400 10.000 C 47.808 10.000,47.090 10.110,46.441 10.759 C 46.023 11.177,45.144 11.637,44.486 11.781 C 42.591 12.197,41.947 18.000,43.796 18.000 C 44.077 18.000,44.401 18.360,44.516 18.800 C 44.712 19.551,45.062 19.600,50.163 19.600 L 55.600 19.600 55.600 24.782 C 55.600 29.800,55.632 29.996,56.618 30.982 C 58.011 32.375,63.200 32.547,63.200 31.200 C 63.200 30.667,63.467 30.400,64.000 30.400 C 64.760 30.400,64.800 30.133,64.800 25.000 L 64.800 19.600 70.200 19.600 C 75.333 19.600,75.600 19.560,75.600 18.800 C 75.600 18.267,75.867 18.000,76.400 18.000 C 77.111 18.000,77.200 17.733,77.200 15.600 C 77.200 13.467,77.111 13.200,76.400 13.200 C 75.867 13.200,75.600 12.933,75.600 12.400 C 75.600 11.867,75.333 11.600,74.800 11.600 C 74.360 11.600,74.000 11.353,74.000 11.050 C 74.000 10.320,72.219 10.000,68.150 10.000 L 64.800 10.000 64.800 5.571 C 64.800 -0.079,64.873 -0.000,59.629 -0.000 L 55.600 0.000 55.600 5.000 M108.916 17.200 C 108.752 17.827,108.370 18.000,107.153 18.000 C 106.133 18.000,105.325 18.275,104.800 18.800 C 104.360 19.240,103.640 19.600,103.200 19.600 C 102.667 19.600,102.400 19.867,102.400 20.400 C 102.400 20.933,102.133 21.200,101.600 21.200 C 100.933 21.200,100.800 21.467,100.800 22.800 C 100.800 24.133,100.667 24.400,100.000 24.400 C 99.216 24.400,99.200 24.667,99.200 37.600 L 99.200 50.800 96.800 50.800 L 94.400 50.800 94.400 49.443 C 94.400 47.548,94.853 47.600,78.330 47.600 C 63.862 47.600,63.520 47.618,63.316 48.400 C 63.163 48.984,62.768 49.201,61.853 49.205 C 59.997 49.214,58.800 49.622,58.800 50.247 C 58.800 50.551,58.440 50.800,58.000 50.800 C 57.467 50.800,57.200 51.067,57.200 51.600 C 57.200 52.133,56.933 52.400,56.400 52.400 C 55.867 52.400,55.600 52.667,55.600 53.200 C 55.600 53.733,55.333 54.000,54.800 54.000 C 54.267 54.000,54.000 54.267,54.000 54.800 C 54.000 55.333,53.733 55.600,53.200 55.600 C 52.667 55.600,52.400 55.867,52.400 56.400 C 52.400 56.840,52.149 57.200,51.843 57.200 C 51.128 57.200,50.800 58.077,50.800 59.986 C 50.800 61.170,50.623 61.553,50.000 61.716 C 49.210 61.923,49.200 62.262,49.200 89.093 L 49.200 116.261 50.126 117.130 L 51.052 118.000 207.926 118.000 C 364.533 118.000,364.800 117.999,364.800 117.200 C 364.800 116.667,365.067 116.400,365.600 116.400 C 366.862 116.400,366.862 62.446,365.600 62.116 C 364.973 61.952,364.800 61.570,364.800 60.353 C 364.800 59.067,364.663 58.800,364.000 58.800 C 363.333 58.800,363.200 58.533,363.200 57.200 C 363.200 55.867,363.067 55.600,362.400 55.600 C 361.867 55.600,361.600 55.333,361.600 54.800 C 361.600 54.267,361.333 54.000,360.800 54.000 C 360.267 54.000,360.000 53.733,360.000 53.200 C 360.000 52.667,359.733 52.400,359.200 52.400 C 358.667 52.400,358.400 52.133,358.400 51.600 C 358.400 51.036,358.133 50.800,357.496 50.800 C 356.999 50.800,356.368 50.440,356.093 50.000 C 355.733 49.424,355.160 49.200,354.043 49.200 C 352.830 49.200,352.448 49.026,352.284 48.400 C 351.978 47.230,321.747 47.133,321.317 48.300 C 320.817 49.658,319.202 50.800,317.779 50.800 L 316.400 50.800 316.400 37.600 C 316.400 24.667,316.384 24.400,315.600 24.400 C 314.948 24.400,314.800 24.133,314.800 22.963 C 314.800 21.885,314.609 21.475,314.037 21.326 C 313.617 21.216,313.184 20.783,313.074 20.363 C 312.925 19.791,312.515 19.600,311.437 19.600 C 310.267 19.600,310.000 19.452,310.000 18.800 C 310.000 18.133,309.733 18.000,308.400 18.000 C 307.299 18.000,306.800 17.826,306.800 17.443 C 306.800 16.086,300.337 15.871,299.507 17.200 C 299.156 17.762,298.574 18.000,297.550 18.000 C 296.430 18.000,296.045 18.185,295.884 18.800 C 295.732 19.383,295.338 19.600,294.437 19.600 C 293.467 19.600,293.200 19.772,293.200 20.400 C 293.200 20.933,292.933 21.200,292.400 21.200 C 291.733 21.200,291.600 21.467,291.600 22.800 C 291.600 24.133,291.467 24.400,290.800 24.400 C 290.016 24.400,290.000 24.667,290.000 37.600 L 290.000 50.800 288.400 50.800 C 286.707 50.800,285.391 49.889,285.131 48.536 C 284.906 47.368,226.000 47.183,226.000 48.351 C 226.000 48.770,225.644 49.200,225.200 49.316 C 224.760 49.431,224.400 49.812,224.400 50.163 C 224.400 50.640,223.997 50.800,222.800 50.800 L 221.200 50.800 221.200 37.763 C 221.200 25.062,221.179 24.720,220.400 24.516 C 219.882 24.381,219.600 23.970,219.600 23.353 C 219.600 22.829,219.271 22.071,218.869 21.669 C 218.468 21.268,218.023 20.638,217.882 20.269 C 217.709 19.818,217.164 19.600,216.213 19.600 C 215.067 19.600,214.800 19.449,214.800 18.800 C 214.800 18.142,214.533 18.000,213.296 18.000 C 212.226 18.000,211.649 17.770,211.293 17.200 C 210.463 15.871,204.000 16.086,204.000 17.443 C 204.000 17.822,203.510 18.000,202.462 18.000 C 201.432 18.000,200.685 18.264,200.200 18.800 C 199.802 19.240,199.127 19.600,198.701 19.600 C 198.274 19.600,197.835 19.943,197.726 20.363 C 197.616 20.783,197.183 21.216,196.763 21.326 C 196.191 21.475,196.000 21.885,196.000 22.963 C 196.000 24.133,195.852 24.400,195.200 24.400 C 194.416 24.400,194.400 24.667,194.400 37.600 L 194.400 50.800 192.271 50.800 C 190.142 50.800,190.141 50.799,189.771 49.300 L 189.400 47.800 160.063 47.697 C 130.988 47.596,130.725 47.602,130.517 48.397 C 130.401 48.839,130.070 49.200,129.780 49.200 C 129.491 49.200,129.140 49.560,129.000 50.000 C 128.803 50.621,128.395 50.800,127.173 50.800 L 125.600 50.800 125.600 37.600 C 125.600 26.603,125.507 24.400,125.045 24.400 C 124.728 24.400,124.378 23.807,124.231 23.023 C 124.073 22.184,123.682 21.553,123.229 21.409 C 122.821 21.280,122.394 20.819,122.281 20.387 C 122.132 19.818,121.732 19.600,120.837 19.600 C 119.867 19.600,119.600 19.428,119.600 18.800 C 119.600 18.141,119.333 18.000,118.089 18.000 C 117.073 18.000,116.353 17.738,115.893 17.200 C 115.319 16.530,114.713 16.400,112.166 16.400 C 109.462 16.400,109.102 16.488,108.916 17.200 M116.012 25.743 C 116.569 26.204,117.424 27.183,117.912 27.918 L 118.800 29.255 118.788 52.128 L 118.775 75.000 117.863 76.483 C 115.085 81.000,110.175 81.104,106.938 76.716 L 106.000 75.445 106.003 52.222 C 106.006 26.721,105.865 28.276,108.381 25.931 C 110.194 24.243,114.085 24.147,116.012 25.743 M209.685 24.817 C 210.658 25.087,211.659 25.825,212.585 26.956 L 214.000 28.682 214.000 52.310 L 214.000 75.937 212.200 77.737 C 208.521 81.416,203.001 80.085,201.594 75.180 C 201.067 73.343,201.070 31.084,201.597 29.186 C 202.538 25.801,206.168 23.840,209.685 24.817 M306.821 25.737 C 309.715 28.097,309.600 27.002,309.600 52.153 C 309.600 76.490,309.655 75.868,307.289 78.355 C 305.079 80.678,298.430 80.384,298.403 77.961 C 298.401 77.830,298.040 77.307,297.600 76.800 C 296.819 75.900,296.800 75.303,296.800 52.280 L 296.800 28.682 298.222 26.947 C 300.402 24.287,304.359 23.730,306.821 25.737 M16.667 41.867 C 16.520 42.013,16.400 42.547,16.400 43.053 C 16.400 43.562,16.044 44.163,15.600 44.400 C 14.872 44.790,14.800 45.238,14.800 49.402 L 14.800 53.977 9.500 54.088 L 4.200 54.200 4.072 55.992 C 4.002 56.978,3.769 57.997,3.553 58.257 C 3.295 58.567,3.305 58.817,3.581 58.988 C 3.811 59.131,4.000 59.777,4.000 60.424 C 4.000 62.733,5.043 63.200,10.200 63.200 L 14.800 63.200 14.800 67.773 C 14.800 71.995,14.861 72.366,15.600 72.600 C 16.040 72.740,16.400 73.046,16.400 73.281 C 16.400 75.511,21.054 76.358,23.159 74.511 L 24.400 73.422 24.400 68.311 L 24.400 63.200 29.800 63.200 C 34.933 63.200,35.200 63.160,35.200 62.400 C 35.200 61.867,35.467 61.600,36.000 61.600 C 36.729 61.600,36.800 61.333,36.800 58.600 C 36.800 55.867,36.729 55.600,36.000 55.600 C 35.467 55.600,35.200 55.333,35.200 54.800 C 35.200 54.040,34.933 54.000,29.800 54.000 L 24.400 54.000 24.400 48.899 L 24.400 43.797 23.236 42.699 C 22.091 41.618,17.497 41.036,16.667 41.867 M99.789 53.300 C 99.902 53.795,100.045 59.330,100.108 65.600 L 100.222 77.000 101.295 79.065 C 106.516 89.112,120.619 87.986,123.987 77.254 C 124.719 74.923,124.800 73.604,124.800 64.013 C 124.800 51.945,124.675 52.402,127.980 52.396 C 130.002 52.393,130.296 52.509,131.271 53.696 L 132.343 55.000 160.015 55.000 L 187.688 55.000 188.773 53.700 C 189.783 52.490,190.030 52.400,192.339 52.400 C 195.660 52.400,195.600 52.161,195.600 65.375 C 195.600 77.617,195.718 78.244,198.722 81.954 C 201.749 85.692,208.927 87.271,212.605 85.008 C 219.536 80.742,220.000 79.466,220.000 64.689 C 220.000 58.050,220.158 53.652,220.414 53.174 C 221.096 51.899,225.854 52.042,226.453 53.356 C 227.290 55.193,227.400 55.200,255.445 55.200 C 283.511 55.200,283.031 55.231,284.521 53.336 C 285.527 52.058,289.726 51.941,290.386 53.174 C 290.642 53.652,290.800 58.061,290.800 64.725 C 290.800 75.081,290.837 75.601,291.746 78.019 C 295.720 88.589,310.166 88.650,314.540 78.115 C 315.253 76.396,315.349 75.072,315.476 65.200 C 315.655 51.338,315.403 52.401,318.508 52.396 C 320.837 52.393,321.070 52.478,322.071 53.696 L 323.141 55.000 335.671 55.228 C 351.728 55.520,354.175 56.318,357.205 62.252 L 358.200 64.200 358.318 87.165 C 358.414 105.638,358.336 110.194,357.918 110.459 C 357.029 111.023,57.845 110.885,57.280 110.320 C 56.486 109.526,56.606 67.866,57.410 64.760 C 59.480 56.774,63.266 55.200,80.407 55.200 C 91.762 55.200,92.666 55.074,93.804 53.338 C 94.716 51.946,99.475 51.915,99.789 53.300 M50.916 122.000 C 50.800 122.443,50.370 122.800,49.953 122.800 C 49.218 122.800,49.200 125.032,49.200 218.000 C 49.200 312.933,49.202 313.200,50.000 313.200 C 50.705 313.200,50.800 313.467,50.800 315.437 C 50.800 317.338,50.920 317.706,51.600 317.884 C 52.040 317.999,52.400 318.420,52.400 318.820 C 52.400 319.219,52.760 319.660,53.200 319.800 C 53.705 319.960,54.000 320.405,54.000 321.005 C 54.000 321.945,54.141 322.060,57.500 323.854 C 58.215 324.236,58.800 324.785,58.800 325.074 C 58.800 325.406,59.305 325.600,60.173 325.600 C 61.195 325.600,61.611 325.805,61.800 326.400 C 62.189 327.624,233.600 327.671,233.600 326.447 C 233.600 326.030,233.957 325.600,234.400 325.484 C 236.130 325.032,235.507 321.620,233.339 319.672 L 231.479 318.000 221.539 318.000 L 211.600 318.000 211.600 293.800 L 211.600 269.600 228.172 269.600 L 244.743 269.600 246.172 268.253 C 247.907 266.616,248.358 262.294,246.843 261.814 C 246.427 261.682,245.994 261.219,245.881 260.787 C 245.680 260.020,245.243 260.000,228.637 260.000 L 211.600 260.000 211.600 241.400 L 211.600 222.800 246.000 222.800 L 280.400 222.800 280.400 228.200 C 280.400 233.222,280.453 233.600,281.153 233.600 C 281.570 233.600,282.000 233.957,282.116 234.400 C 282.657 236.470,288.400 235.007,288.400 232.800 C 288.400 232.360,288.649 232.000,288.953 232.000 C 289.744 232.000,289.988 230.712,289.995 226.500 L 290.000 222.800 323.600 222.800 L 357.200 222.800 357.200 232.000 C 357.200 240.933,357.223 241.200,358.000 241.200 C 358.533 241.200,358.800 241.467,358.800 242.000 C 358.800 243.188,364.364 243.223,364.674 242.037 C 364.784 241.617,365.217 241.184,365.637 241.074 C 366.781 240.775,366.844 123.334,365.700 122.923 C 365.315 122.785,364.678 122.341,364.284 121.936 C 363.193 120.813,358.800 120.865,358.800 122.000 C 358.800 122.533,358.533 122.800,358.000 122.800 C 357.209 122.800,357.200 123.067,357.200 145.400 L 357.200 168.000 323.600 168.000 L 290.000 168.000 290.000 147.450 C 290.000 126.435,289.907 124.400,288.950 124.400 C 288.647 124.400,288.400 124.040,288.400 123.600 C 288.400 123.067,288.133 122.800,287.600 122.800 C 287.067 122.800,286.800 122.533,286.800 122.000 C 286.800 120.795,282.431 120.795,282.116 122.000 C 282.000 122.443,281.570 122.800,281.153 122.800 C 280.424 122.800,280.400 123.533,280.400 145.400 L 280.400 168.000 246.000 168.000 L 211.600 168.000 211.600 145.400 C 211.600 123.067,211.591 122.800,210.800 122.800 C 210.267 122.800,210.000 122.533,210.000 122.000 C 210.000 121.297,209.733 121.200,207.800 121.200 C 205.867 121.200,205.600 121.297,205.600 122.000 C 205.600 122.533,205.333 122.800,204.800 122.800 C 204.273 122.800,204.000 123.067,204.000 123.580 C 204.000 124.009,203.685 124.536,203.300 124.752 C 202.649 125.116,202.592 126.646,202.490 146.572 L 202.380 168.000 168.790 168.000 L 135.200 168.000 135.200 145.400 C 135.200 123.533,135.176 122.800,134.447 122.800 C 134.030 122.800,133.600 122.443,133.484 122.000 C 133.094 120.509,129.374 120.904,127.400 122.645 L 125.800 124.057 125.684 146.029 L 125.568 168.000 91.984 168.000 L 58.400 168.000 58.400 145.400 C 58.400 123.533,58.376 122.800,57.647 122.800 C 57.230 122.800,56.800 122.443,56.684 122.000 C 56.501 121.301,56.138 121.200,53.800 121.200 C 51.462 121.200,51.099 121.301,50.916 122.000 M127.586 175.974 C 128.214 177.148,128.152 214.488,127.520 215.120 C 126.884 215.756,58.759 215.820,57.574 215.186 C 56.489 214.605,56.350 176.907,57.429 175.829 C 58.513 174.744,127.003 174.885,127.586 175.974 M204.386 175.974 C 205.014 177.148,204.952 214.488,204.320 215.120 C 203.811 215.629,135.942 215.860,134.633 215.357 C 133.802 215.039,133.654 176.506,134.480 175.680 C 135.432 174.728,203.873 175.016,204.386 175.974 M281.186 175.974 C 281.870 177.251,281.746 214.581,281.056 215.153 C 280.660 215.482,271.103 215.577,245.756 215.502 L 211.000 215.400 210.889 196.200 C 210.828 185.640,210.877 176.595,210.997 176.100 L 211.215 175.200 245.994 175.200 C 279.968 175.200,280.781 175.218,281.186 175.974 M357.920 175.680 C 358.280 176.040,358.400 181.029,358.400 195.672 L 358.400 215.185 357.500 215.402 C 357.005 215.522,341.120 215.571,322.200 215.510 L 287.800 215.400 287.689 196.200 C 287.628 185.640,287.677 176.595,287.797 176.100 L 288.015 175.200 322.728 175.200 C 349.193 175.200,357.554 175.314,357.920 175.680 M125.600 241.400 L 125.600 260.000 92.000 260.000 L 58.400 260.000 58.400 241.400 L 58.400 222.800 92.000 222.800 L 125.600 222.800 125.600 241.400 M202.400 241.400 L 202.400 260.000 168.800 260.000 L 135.200 260.000 135.200 241.400 L 135.200 222.800 168.800 222.800 L 202.400 222.800 202.400 241.400 M306.100 232.265 C 305.825 232.376,305.600 232.722,305.600 233.033 C 305.600 233.484,304.784 233.600,301.600 233.600 C 298.133 233.600,297.493 233.707,296.800 234.400 C 296.194 235.006,295.467 235.200,293.800 235.200 C 291.867 235.200,291.600 235.297,291.600 236.000 C 291.600 236.711,291.333 236.800,289.200 236.800 C 287.067 236.800,286.800 236.889,286.800 237.600 C 286.800 238.264,286.533 238.400,285.233 238.400 C 283.278 238.400,282.400 238.723,282.400 239.443 C 282.400 239.816,281.925 240.000,280.963 240.000 C 279.862 240.000,279.476 240.187,279.316 240.800 C 279.158 241.403,278.770 241.600,277.741 241.600 C 276.938 241.600,276.286 241.831,276.160 242.161 C 276.041 242.469,275.597 242.812,275.172 242.923 C 274.748 243.034,274.400 243.412,274.400 243.763 C 274.400 244.170,274.051 244.400,273.433 244.400 C 272.052 244.400,271.200 244.798,271.200 245.443 C 271.200 245.749,270.840 246.000,270.400 246.000 C 269.882 246.000,269.600 246.267,269.600 246.755 C 269.600 247.302,269.213 247.584,268.200 247.774 C 267.362 247.931,266.800 248.270,266.800 248.618 C 266.800 248.942,266.429 249.200,265.963 249.200 C 265.462 249.200,265.041 249.521,264.916 250.000 C 264.801 250.440,264.441 250.800,264.116 250.800 C 263.791 250.800,263.431 251.160,263.316 251.600 C 263.201 252.040,262.841 252.400,262.516 252.400 C 262.191 252.400,261.831 252.760,261.716 253.200 C 261.601 253.640,261.241 254.000,260.916 254.000 C 260.591 254.000,260.231 254.360,260.116 254.800 C 260.001 255.240,259.658 255.600,259.353 255.600 C 259.049 255.600,258.800 255.960,258.800 256.400 C 258.800 256.933,258.533 257.200,258.000 257.200 C 257.467 257.200,257.200 257.467,257.200 258.000 C 257.200 258.533,256.933 258.800,256.400 258.800 C 255.960 258.800,255.600 259.058,255.600 259.373 C 255.600 259.688,255.240 260.060,254.800 260.200 C 254.360 260.340,254.000 260.712,254.000 261.027 C 254.000 261.342,253.640 261.960,253.200 262.400 C 252.760 262.840,252.400 263.560,252.400 264.000 C 252.400 264.533,252.133 264.800,251.600 264.800 C 251.083 264.800,250.800 265.067,250.800 265.553 C 250.800 265.970,250.443 266.400,250.000 266.516 C 249.387 266.676,249.200 267.062,249.200 268.163 C 249.200 269.333,249.052 269.600,248.400 269.600 C 247.863 269.600,247.600 269.867,247.600 270.413 C 247.600 270.859,247.335 271.327,247.011 271.451 C 246.687 271.576,246.307 272.290,246.166 273.039 C 246.026 273.787,245.681 274.400,245.400 274.400 C 245.119 274.400,244.764 275.066,244.611 275.880 C 244.459 276.694,244.060 277.560,243.726 277.804 C 243.392 278.049,243.024 279.093,242.907 280.124 C 242.770 281.343,242.504 282.000,242.148 282.000 C 241.757 282.000,241.600 282.573,241.600 283.997 C 241.600 285.560,241.426 286.102,240.800 286.493 C 240.154 286.897,240.000 287.426,240.000 289.250 C 240.000 291.170,239.881 291.538,239.200 291.716 C 238.461 291.909,238.400 292.262,238.400 296.316 C 238.400 300.370,238.339 300.723,237.600 300.916 C 236.828 301.118,236.800 301.462,236.800 310.800 C 236.800 320.138,236.828 320.482,237.600 320.684 C 238.332 320.876,238.400 321.230,238.400 324.847 C 238.400 328.267,238.508 328.908,239.200 329.600 C 239.822 330.222,240.000 330.933,240.000 332.800 C 240.000 334.933,240.089 335.200,240.800 335.200 C 241.503 335.200,241.600 335.467,241.600 337.400 C 241.600 339.089,241.739 339.600,242.200 339.600 C 242.568 339.600,242.800 339.974,242.800 340.567 C 242.800 341.948,243.198 342.800,243.843 342.800 C 244.223 342.800,244.400 343.292,244.400 344.353 C 244.400 345.570,244.573 345.952,245.200 346.116 C 245.813 346.276,246.000 346.662,246.000 347.763 C 246.000 348.933,246.148 349.200,246.800 349.200 C 247.452 349.200,247.600 349.467,247.600 350.637 C 247.600 351.738,247.787 352.124,248.400 352.284 C 248.840 352.399,249.200 352.818,249.200 353.214 C 249.200 354.362,249.640 355.200,250.243 355.200 C 250.549 355.200,250.800 355.560,250.800 356.000 C 250.800 356.465,251.067 356.800,251.437 356.800 C 251.788 356.800,252.169 357.160,252.284 357.600 C 252.400 358.043,252.830 358.400,253.247 358.400 C 253.845 358.400,254.000 358.696,254.000 359.837 C 254.000 360.938,254.187 361.324,254.800 361.484 C 255.243 361.600,255.600 362.030,255.600 362.447 C 255.600 362.933,255.883 363.200,256.400 363.200 C 256.933 363.200,257.200 363.467,257.200 364.000 C 257.200 364.533,257.467 364.800,258.000 364.800 C 258.533 364.800,258.800 365.067,258.800 365.600 C 258.800 366.040,259.058 366.400,259.373 366.400 C 259.688 366.400,260.060 366.760,260.200 367.200 C 260.340 367.640,260.700 368.000,261.000 368.000 C 261.300 368.000,261.660 368.360,261.800 368.800 C 261.940 369.240,262.216 369.600,262.414 369.600 C 262.611 369.600,263.407 370.234,264.182 371.009 C 264.958 371.784,266.134 372.527,266.796 372.659 C 267.458 372.792,268.000 373.135,268.000 373.423 C 268.000 373.711,268.360 374.060,268.800 374.200 C 269.240 374.340,269.600 374.712,269.600 375.027 C 269.600 375.342,269.960 375.600,270.400 375.600 C 270.840 375.600,271.560 375.960,272.000 376.400 C 272.440 376.840,273.160 377.200,273.600 377.200 C 274.133 377.200,274.400 377.467,274.400 378.000 C 274.400 378.642,274.667 378.800,275.753 378.800 C 276.770 378.800,277.159 378.999,277.316 379.600 C 277.475 380.206,277.862 380.400,278.916 380.400 C 279.970 380.400,280.357 380.594,280.516 381.200 C 280.676 381.813,281.062 382.000,282.163 382.000 C 283.333 382.000,283.600 382.148,283.600 382.800 C 283.600 383.467,283.867 383.600,285.200 383.600 C 286.267 383.600,287.067 383.867,287.600 384.400 C 288.103 384.903,288.933 385.200,289.837 385.200 C 290.668 385.200,291.703 385.537,292.291 386.000 C 293.018 386.572,293.914 386.800,295.434 386.800 C 297.043 386.800,297.655 386.970,297.951 387.500 C 298.294 388.114,299.145 388.215,304.871 388.320 C 310.458 388.422,311.475 388.537,311.918 389.120 C 312.658 390.092,318.684 390.047,319.403 389.064 C 319.815 388.499,320.750 388.399,325.644 388.391 C 330.741 388.383,331.515 388.293,332.400 387.600 C 333.122 387.035,334.035 386.815,335.686 386.809 C 337.557 386.802,338.050 386.655,338.400 386.000 C 338.740 385.365,339.238 385.200,340.814 385.200 C 342.533 385.200,342.800 385.093,342.800 384.400 C 342.800 383.695,343.067 383.600,345.037 383.600 C 346.938 383.600,347.306 383.480,347.484 382.800 C 347.643 382.194,348.030 382.000,349.084 382.000 C 350.138 382.000,350.525 381.806,350.684 381.200 C 350.843 380.594,351.230 380.400,352.284 380.400 C 353.338 380.400,353.725 380.206,353.884 379.600 C 354.034 379.026,354.430 378.800,355.284 378.800 C 356.138 378.800,356.534 378.574,356.684 378.000 C 356.800 377.557,357.230 377.200,357.647 377.200 C 358.133 377.200,358.400 376.917,358.400 376.400 C 358.400 375.748,358.667 375.600,359.837 375.600 C 360.938 375.600,361.324 375.413,361.484 374.800 C 361.600 374.357,362.030 374.000,362.447 374.000 C 362.861 374.000,363.200 373.730,363.200 373.400 C 363.200 373.070,363.487 372.800,363.837 372.800 C 364.188 372.800,364.569 372.440,364.684 372.000 C 364.799 371.560,365.211 371.200,365.600 371.200 C 365.989 371.200,366.396 370.859,366.505 370.442 C 366.622 369.994,367.212 369.573,367.951 369.411 C 368.638 369.260,369.200 368.881,369.200 368.568 C 369.200 368.256,369.394 368.000,369.631 368.000 C 370.176 368.000,372.400 365.797,372.400 365.258 C 372.400 365.036,372.760 364.740,373.200 364.600 C 373.640 364.460,374.000 364.162,374.000 363.936 C 374.000 363.711,374.360 363.069,374.800 362.509 C 375.240 361.950,375.600 361.156,375.600 360.746 C 375.600 360.267,375.886 360.000,376.400 360.000 C 376.933 360.000,377.200 359.733,377.200 359.200 C 377.200 358.667,377.467 358.400,378.000 358.400 C 378.517 358.400,378.800 358.133,378.800 357.647 C 378.800 357.230,379.157 356.800,379.600 356.684 C 380.183 356.532,380.400 356.138,380.400 355.237 C 380.400 354.267,380.572 354.000,381.200 354.000 C 381.733 354.000,382.000 353.733,382.000 353.200 C 382.000 352.760,382.360 352.040,382.800 351.600 C 383.240 351.160,383.600 350.461,383.600 350.047 C 383.600 349.630,383.957 349.200,384.400 349.084 C 385.006 348.925,385.200 348.538,385.200 347.484 C 385.200 346.430,385.394 346.043,386.000 345.884 C 386.613 345.724,386.800 345.338,386.800 344.237 C 386.800 343.280,386.985 342.800,387.353 342.800 C 387.984 342.800,388.387 341.600,388.395 339.700 C 388.398 338.858,388.596 338.400,388.957 338.400 C 389.696 338.400,390.000 337.514,390.000 335.367 C 390.000 334.147,390.168 333.600,390.542 333.600 C 390.926 333.600,391.155 332.755,391.327 330.706 C 391.487 328.787,391.777 327.660,392.185 327.362 C 392.693 326.990,392.800 325.825,392.800 320.656 C 392.800 315.575,392.905 314.400,393.357 314.400 C 394.719 314.400,394.950 307.669,393.600 307.316 C 392.840 307.117,392.800 306.770,392.800 300.373 C 392.800 294.634,392.706 293.587,392.164 293.284 C 391.750 293.052,391.426 292.066,391.236 290.456 C 391.076 289.097,390.732 287.772,390.473 287.513 C 390.213 287.253,390.000 286.362,390.000 285.534 C 390.000 284.438,389.783 283.912,389.200 283.600 C 388.611 283.285,388.400 282.762,388.400 281.619 C 388.400 279.678,388.075 278.800,387.357 278.800 C 386.987 278.800,386.800 278.330,386.800 277.400 C 386.800 276.267,386.648 276.000,386.000 276.000 C 385.333 276.000,385.200 275.733,385.200 274.400 C 385.200 273.067,385.067 272.800,384.400 272.800 C 383.748 272.800,383.600 272.533,383.600 271.363 C 383.600 270.262,383.413 269.876,382.800 269.716 C 382.357 269.600,382.000 269.170,382.000 268.753 C 382.000 268.267,381.717 268.000,381.200 268.000 C 380.548 268.000,380.400 267.733,380.400 266.563 C 380.400 265.462,380.213 265.076,379.600 264.916 C 379.157 264.800,378.800 264.370,378.800 263.953 C 378.800 263.467,378.517 263.200,378.000 263.200 C 377.467 263.200,377.200 262.933,377.200 262.400 C 377.200 261.960,376.840 261.240,376.400 260.800 C 375.960 260.360,375.600 259.730,375.600 259.400 C 375.600 259.067,375.244 258.800,374.800 258.800 C 374.267 258.800,374.000 258.533,374.000 258.000 C 374.000 257.560,373.742 257.200,373.427 257.200 C 373.112 257.200,372.740 256.840,372.600 256.400 C 372.460 255.960,372.088 255.600,371.773 255.600 C 371.458 255.600,371.200 255.313,371.200 254.963 C 371.200 254.612,370.840 254.231,370.400 254.116 C 369.960 254.001,369.600 253.641,369.600 253.316 C 369.600 252.991,369.240 252.631,368.800 252.516 C 368.360 252.401,368.000 252.052,368.000 251.741 C 368.000 251.430,367.699 251.059,367.331 250.918 C 366.962 250.777,366.332 250.332,365.931 249.931 C 365.529 249.529,364.750 249.200,364.200 249.200 C 363.467 249.200,363.200 248.987,363.200 248.400 C 363.200 247.867,362.933 247.600,362.400 247.600 C 361.950 247.600,361.600 247.333,361.600 246.990 C 361.600 246.655,361.150 246.209,360.600 246.000 C 360.050 245.791,359.600 245.444,359.600 245.228 C 359.600 245.013,358.970 244.718,358.200 244.574 C 357.425 244.428,356.800 244.071,356.800 243.774 C 356.800 243.476,356.175 243.119,355.400 242.974 C 354.598 242.823,354.000 242.474,354.000 242.155 C 354.000 241.774,353.499 241.600,352.400 241.600 C 351.067 241.600,350.800 241.467,350.800 240.800 C 350.800 240.133,350.533 240.000,349.200 240.000 C 347.867 240.000,347.600 239.867,347.600 239.200 C 347.600 238.537,347.333 238.400,346.047 238.400 C 344.830 238.400,344.448 238.227,344.284 237.600 C 344.109 236.930,343.738 236.800,342.000 236.800 C 340.262 236.800,339.891 236.670,339.716 236.000 C 339.531 235.291,339.170 235.200,336.553 235.200 C 333.867 235.200,333.600 235.128,333.600 234.400 C 333.600 233.656,333.333 233.600,329.763 233.600 C 326.532 233.600,325.766 233.474,324.909 232.800 C 323.925 232.026,307.827 231.568,306.100 232.265 M320.800 240.399 C 327.910 240.869,334.087 242.229,341.400 244.937 C 345.396 246.416,355.446 252.075,357.853 254.200 C 358.102 254.420,359.092 255.221,360.053 255.979 C 364.900 259.806,371.383 267.089,374.847 272.600 C 377.217 276.369,377.387 276.666,378.620 279.200 C 379.209 280.410,380.030 282.081,380.445 282.912 C 380.860 283.744,381.200 284.617,381.200 284.852 C 381.200 285.087,381.469 285.846,381.797 286.540 C 382.552 288.132,383.495 291.396,384.241 295.000 C 384.560 296.540,385.017 298.430,385.257 299.200 C 386.210 302.257,386.175 316.881,385.203 322.164 C 381.477 342.421,372.545 356.334,354.800 369.524 C 339.612 380.813,313.067 384.630,294.400 378.208 C 292.750 377.641,290.770 376.984,290.000 376.750 C 288.654 376.339,282.235 373.284,280.618 372.284 C 264.665 362.417,255.737 352.016,249.302 335.800 C 238.406 308.340,247.313 274.997,270.551 256.251 C 276.745 251.254,286.922 245.200,289.127 245.200 C 289.509 245.200,290.177 244.960,290.611 244.667 C 292.878 243.137,303.078 240.797,309.157 240.413 C 311.711 240.252,314.070 240.096,314.400 240.068 C 314.730 240.040,317.610 240.189,320.800 240.399 M307.600 252.976 C 305.070 253.238,302.640 253.642,302.200 253.874 C 301.760 254.105,300.680 254.418,299.800 254.568 C 298.229 254.837,294.969 255.953,292.600 257.032 C 291.940 257.333,290.950 257.765,290.400 257.992 C 285.156 260.160,277.084 266.161,272.365 271.400 C 269.888 274.151,267.200 277.460,267.200 277.760 C 267.200 277.896,266.606 278.861,265.881 279.904 C 263.765 282.945,260.024 291.175,259.383 294.200 C 259.243 294.860,258.884 296.210,258.584 297.200 C 256.760 303.220,256.764 319.045,258.590 324.200 C 258.901 325.080,259.282 326.520,259.435 327.400 C 259.588 328.280,259.958 329.355,260.257 329.789 C 260.556 330.223,260.802 330.853,260.804 331.189 C 260.806 331.525,261.250 332.700,261.791 333.800 C 262.332 334.900,262.781 335.925,262.787 336.079 C 262.807 336.507,265.488 341.079,267.550 344.199 C 272.879 352.264,290.172 365.600,295.299 365.600 C 295.566 365.600,296.688 365.940,297.792 366.355 C 307.113 369.863,323.687 369.863,333.008 366.355 C 334.112 365.940,335.234 365.600,335.501 365.600 C 335.768 365.600,337.744 364.764,339.893 363.742 C 351.820 358.071,362.087 348.114,367.569 336.900 C 369.803 332.331,370.885 329.327,372.361 323.600 C 373.689 318.443,373.984 303.190,372.824 299.600 C 372.575 298.830,372.122 297.120,371.816 295.800 C 370.953 292.072,370.243 290.219,367.603 284.800 C 360.627 270.482,345.461 257.929,331.163 254.640 C 329.933 254.357,328.687 253.977,328.393 253.796 C 326.621 252.700,314.773 252.233,307.600 252.976 M321.600 258.645 C 324.350 259.002,327.636 259.633,328.902 260.047 C 330.167 260.461,331.473 260.800,331.803 260.800 C 332.133 260.800,333.075 261.160,333.896 261.600 C 334.716 262.040,335.684 262.400,336.045 262.400 C 336.406 262.400,336.917 262.658,337.179 262.974 C 337.441 263.290,338.170 263.662,338.800 263.800 C 339.430 263.938,340.159 264.310,340.421 264.626 C 340.683 264.942,341.088 265.200,341.320 265.200 C 344.097 265.200,356.157 276.616,359.912 282.800 C 361.336 285.144,364.400 291.469,364.400 292.063 C 364.400 292.370,364.644 292.977,364.943 293.411 C 365.242 293.845,365.612 294.920,365.765 295.800 C 365.918 296.680,366.302 298.120,366.617 299.000 C 367.939 302.687,368.026 318.525,366.744 322.200 C 366.514 322.860,366.087 324.300,365.796 325.400 C 365.128 327.923,364.171 330.597,363.290 332.400 C 362.236 334.559,359.075 340.176,358.788 340.400 C 358.647 340.510,358.367 340.899,358.166 341.264 C 356.373 344.520,347.399 352.962,343.163 355.377 C 340.432 356.935,335.069 359.600,334.640 359.614 C 334.398 359.621,333.480 359.975,332.600 360.400 C 331.720 360.825,330.589 361.179,330.087 361.186 C 329.585 361.194,328.530 361.469,327.742 361.799 C 324.500 363.153,310.572 363.524,305.400 362.394 C 289.798 358.986,278.109 350.541,269.697 336.600 C 263.019 325.532,261.024 308.837,264.893 296.400 C 266.584 290.963,269.466 284.582,271.049 282.769 C 271.352 282.421,271.600 281.997,271.600 281.826 C 271.600 281.655,272.005 281.012,272.500 280.397 C 272.995 279.782,273.822 278.725,274.338 278.048 C 277.607 273.760,287.686 265.200,289.466 265.200 C 289.706 265.200,290.117 264.942,290.379 264.626 C 290.641 264.310,291.370 263.938,292.000 263.800 C 292.630 263.662,293.359 263.290,293.621 262.974 C 293.883 262.658,294.394 262.400,294.755 262.400 C 295.116 262.400,296.084 262.040,296.904 261.600 C 297.725 261.160,298.623 260.803,298.899 260.806 C 299.174 260.809,300.570 260.458,302.000 260.025 C 308.142 258.168,314.489 257.721,321.600 258.645 M125.600 293.800 L 125.600 318.000 95.200 318.000 C 65.067 318.000,64.800 317.993,64.800 317.200 C 64.800 316.667,64.533 316.400,64.000 316.400 C 63.535 316.400,63.200 316.133,63.200 315.763 C 63.200 315.412,62.840 315.031,62.400 314.916 C 61.960 314.801,61.600 314.441,61.600 314.116 C 61.600 313.791,61.240 313.431,60.800 313.316 C 60.360 313.201,60.000 312.796,60.000 312.415 C 60.000 312.035,59.640 311.398,59.200 311.000 C 58.420 310.294,58.400 309.768,58.400 289.938 L 58.400 269.600 92.000 269.600 L 125.600 269.600 125.600 293.800 M202.400 293.800 L 202.400 318.000 168.800 318.000 L 135.200 318.000 135.200 293.800 L 135.200 269.600 168.800 269.600 L 202.400 269.600 202.400 293.800 M313.901 277.937 L 312.801 278.600 312.801 295.274 C 312.800 304.921,312.639 312.372,312.417 312.955 L 312.034 313.962 297.794 314.081 L 283.554 314.200 282.786 315.200 C 281.734 316.570,281.810 317.682,283.032 318.830 L 284.064 319.800 300.065 319.800 L 316.066 319.800 317.233 318.494 L 318.400 317.187 318.400 298.424 L 318.400 279.661 317.364 278.431 C 316.211 277.060,315.517 276.961,313.901 277.937 M82.000 349.837 C 82.000 350.188,81.640 350.569,81.200 350.684 C 80.490 350.870,80.400 351.230,80.400 353.884 C 80.400 356.538,80.490 356.898,81.200 357.084 C 81.640 357.199,82.000 357.542,82.000 357.847 C 82.000 358.315,89.577 358.400,131.200 358.400 C 180.133 358.400,180.400 358.396,180.400 357.600 C 180.400 357.160,180.651 356.800,180.957 356.800 C 182.223 356.800,182.491 351.999,181.274 351.123 C 180.874 350.835,180.430 350.285,180.286 349.900 C 179.901 348.866,82.000 348.804,82.000 349.837 M186.070 350.126 C 184.818 351.458,184.765 356.761,186.000 357.084 C 186.440 357.199,186.800 357.542,186.800 357.847 C 186.800 358.950,203.758 358.624,204.816 357.500 C 205.879 356.372,205.866 350.265,204.800 349.591 C 203.329 348.662,187.008 349.127,186.070 350.126 " stroke="none" fill="#233138" fill-rule="evenodd"></path></g></svg>